<svg width="703" height="658" viewBox="0 0 703 658" fill="none" xmlns="http://www.w3.org/2000/svg">
<mask id="path-1-inside-1_34_3" fill="white">
<path d="M348.4 1.90004C346.6 3.00003 341.8 7.80003 337.5 12.6C308.4 46 292.6 90.1 296.9 126C301 159.5 314.5 186.9 341.5 216.5C351.4 227.5 352.7 227.6 361.2 218.6C403.3 173.3 415.3 125 397.9 71.1C392 52.8 381.9 33.9 368.3 15.9C361 6.20004 354.9 3.05176e-05 352.7 3.05176e-05C352 3.05176e-05 350.1 0.90004 348.4 1.90004ZM356.2 20.2C367.2 33.6 380.4 57.8 385.9 74.6C391.4 91.4 392.5 98.9 392.4 118C392.4 133.5 392.1 136.6 389.8 145.1C385.1 162.4 376.3 180 364.7 195.3L359.5 202.1L359 156.2C358.6 119.3 358.2 110 357.1 108.7C355.4 106.5 350.2 106.5 347.8 108.7C346.1 110.2 346 113 346 156.4L345.9 202.5L342.4 198.5C336.8 192.1 327.2 177.3 322.4 167.7C307 137.2 304.9 105.6 316.1 72.9C318.6 65.5 325.7 50.7 330.3 43.5C336.2 34.1 350.5 16 352.1 16C352.4 16 354.3 17.9 356.2 20.2Z"/>
</mask>
<path d="M348.4 1.90004L306.684 -66.3625L307.258 -66.7135L307.838 -67.0547L348.4 1.90004ZM337.5 12.6L277.182 -39.9524L277.545 -40.3686L277.913 -40.7798L337.5 12.6ZM296.9 126L217.492 135.719L217.48 135.616L217.468 135.514L296.9 126ZM341.5 216.5L400.605 162.587L400.785 162.784L400.963 162.983L341.5 216.5ZM361.2 218.6L419.8 273.061L419.582 273.296L419.361 273.53L361.2 218.6ZM397.9 71.1L321.769 95.6768L321.764 95.6624L321.759 95.6481L397.9 71.1ZM368.3 15.9L304.471 64.1267L304.425 64.0661L304.379 64.0054L368.3 15.9ZM356.2 20.2L417.877 -30.7505L417.956 -30.6551L418.034 -30.5594L356.2 20.2ZM392.4 118H312.4V117.791L312.401 117.581L392.4 118ZM389.8 145.1L467.023 165.996L467.012 166.035L467.002 166.074L389.8 145.1ZM364.7 195.3L428.449 243.633L428.349 243.765L428.249 243.896L364.7 195.3ZM359.5 202.1L423.049 250.696L282.033 435.101L279.505 202.971L359.5 202.1ZM359 156.2L279.005 157.071L279.005 157.067L359 156.2ZM357.1 108.7L296.029 160.375L294.882 159.02L293.797 157.616L357.1 108.7ZM347.8 108.7L401.858 167.672L401.299 168.185L400.73 168.687L347.8 108.7ZM346 156.4H426V156.487L426 156.574L346 156.4ZM345.9 202.5L425.9 202.674L425.439 414.89L285.694 255.18L345.9 202.5ZM342.4 198.5L402.606 145.82L402.606 145.82L342.4 198.5ZM322.4 167.7L393.813 131.642L393.884 131.782L393.954 131.923L322.4 167.7ZM316.1 72.9L391.892 98.5053L391.838 98.6639L391.784 98.8223L316.1 72.9ZM330.3 43.5L398.059 86.0295L397.888 86.301L397.716 86.5712L330.3 43.5ZM390.116 70.1626C392.063 68.973 393.595 67.9153 394.612 67.187C395.667 66.4312 396.516 65.7793 397.119 65.3036C398.29 64.3809 399.108 63.6694 399.472 63.348C400.188 62.7158 400.427 62.4615 400.092 62.7925C399.471 63.4059 398.327 64.596 397.087 65.9799L277.913 -40.7798C280.973 -44.1959 284.379 -47.8058 287.683 -51.0674C288.344 -51.7204 296.5 -60.1391 306.684 -66.3625L390.116 70.1626ZM397.818 65.1524C379.944 85.6673 375.317 108.008 376.332 116.486L217.468 135.514C209.883 72.192 236.856 6.33275 277.182 -39.9524L397.818 65.1524ZM376.307 116.282C378.036 130.404 382.653 142.907 400.605 162.587L282.395 270.413C246.347 230.893 223.964 188.596 217.492 135.719L376.307 116.282ZM400.963 162.983C403.821 166.158 402.519 164.483 399.708 162.067C397.729 160.366 383.635 147.939 360.21 145.485C333.421 142.679 314.8 154.549 308.477 159.208C303.302 163.02 300.317 166.552 303.039 163.67L419.361 273.53C417.833 275.148 411.498 282.042 403.379 288.024C394.112 294.851 372.953 307.696 343.54 304.615C317.49 301.886 300.683 287.934 295.411 283.402C289.306 278.154 284.129 272.342 282.036 270.017L400.963 162.983ZM302.599 164.139C316.562 149.115 322.088 137.367 324.228 128.765C326.258 120.602 326.499 110.332 321.769 95.6768L474.031 46.5233C486.7 85.7683 489.642 126.598 479.497 167.385C469.462 207.733 447.938 242.785 419.8 273.061L302.599 164.139ZM321.759 95.6481C319.004 87.1028 313.507 76.0867 304.471 64.1267L432.129 -32.3266C450.293 -8.28658 464.996 18.4973 474.041 46.552L321.759 95.6481ZM304.379 64.0054C301.958 60.7886 300.924 59.7709 301.505 60.3621C301.62 60.4801 303.779 62.7243 307.607 65.5426C309.503 66.9381 313.429 69.6857 319.008 72.3707C323.504 74.5348 335.767 80 352.7 80V-80C370.183 -80 383.117 -74.341 388.397 -71.8C394.759 -68.738 399.58 -65.4302 402.471 -63.3019C408.289 -59.018 412.842 -54.6175 415.67 -51.7371C421.676 -45.6208 427.342 -38.6885 432.221 -32.2053L304.379 64.0054ZM352.7 80C360.426 80 366.431 78.8551 369.368 78.217C372.719 77.489 375.371 76.6778 377.035 76.1289C380.311 75.0481 382.722 73.9949 383.852 73.4847C386.235 72.4084 387.914 71.4709 388.962 70.8548L307.838 -67.0547C310.586 -68.6708 314.065 -70.5583 317.998 -72.3346C319.903 -73.1949 323.026 -74.5356 326.909 -75.8163C328.748 -76.4231 339.115 -80 352.7 -80V80ZM418.034 -30.5594C435.483 -9.30328 453.419 23.7148 461.929 49.7095L309.871 99.4906C307.381 91.8852 298.917 76.5033 294.366 70.9595L418.034 -30.5594ZM461.929 49.7095C465.24 59.8229 468.456 70.7854 470.373 83.6235C472.243 96.149 472.455 107.687 472.399 118.419L312.401 117.581C312.445 109.213 312.157 107.451 312.127 107.252C312.122 107.217 312.081 106.901 311.826 105.921C311.526 104.766 310.975 102.865 309.871 99.4906L461.929 49.7095ZM472.4 118C472.4 136.105 472.049 147.421 467.023 165.996L312.577 124.204C312.983 122.705 312.927 122.798 312.782 123.511C312.578 124.513 312.416 125.615 312.329 126.528C312.265 127.191 312.304 127.124 312.341 125.61C312.38 124.041 312.4 121.757 312.4 118H472.4ZM467.002 166.074C459.426 193.957 445.801 220.746 428.449 243.633L300.951 146.967C306.799 139.254 310.774 130.843 312.598 124.126L467.002 166.074ZM428.249 243.896L423.049 250.696L295.951 153.504L301.151 146.704L428.249 243.896ZM279.505 202.971L279.005 157.071L438.995 155.329L439.495 201.229L279.505 202.971ZM279.005 157.067C278.802 138.418 278.609 128.055 278.378 122.337C278.324 121.018 278.281 120.261 278.258 119.917C278.229 119.492 278.254 120.024 278.39 121.142C278.481 121.893 278.887 125.231 280.046 129.698C280.647 132.013 281.763 135.867 283.73 140.47C285.57 144.778 289.254 152.368 296.029 160.375L418.171 57.0246C430.457 71.5452 434.158 86.585 434.916 89.5041C436.309 94.8721 436.929 99.4386 437.219 101.821C437.825 106.804 438.087 111.903 438.247 115.863C438.59 124.345 438.797 137.082 438.995 155.333L279.005 157.067ZM293.797 157.616C305.304 172.507 319.25 179.523 328.175 182.735C337.485 186.086 345.978 187.05 352.712 187.05C363.706 187.05 383.734 184.286 401.858 167.672L293.742 49.7277C314.266 30.914 338.094 27.05 352.712 27.05C364.652 27.05 397.267 29.8441 420.403 59.7842L293.797 157.616ZM400.73 168.687C402.908 166.765 405.906 163.901 409.082 160.071C412.311 156.176 415.148 151.98 417.55 147.554C422.19 139.002 424.145 131.529 425.002 127.554C425.851 123.62 426.111 120.75 426.169 120.089C426.246 119.221 426.238 118.991 426.206 119.845C426.139 121.62 426.076 124.981 426.041 131.298C426.006 137.426 426 145.516 426 156.4H266C266 135.596 266.009 122.057 266.319 113.83C266.436 110.717 266.717 102.545 268.601 93.8119C269.707 88.6851 271.948 80.4081 276.919 71.2468C282.522 60.9201 289.328 53.6036 294.87 48.713L400.73 168.687ZM426 156.574L425.9 202.674L265.9 202.326L266 156.227L426 156.574ZM285.694 255.18L282.194 251.18L402.606 145.82L406.106 149.82L285.694 255.18ZM282.194 251.18C271.077 238.475 257.904 217.593 250.846 203.477L393.954 131.923C394.146 132.307 394.735 133.425 395.787 135.221C396.792 136.936 397.972 138.847 399.202 140.742C400.444 142.655 401.56 144.278 402.415 145.462C403.432 146.868 403.471 146.808 402.606 145.82L282.194 251.18ZM250.987 203.758C225.745 153.766 222.323 99.8019 240.416 46.9778L391.784 98.8223C387.476 111.398 388.255 120.634 393.813 131.642L250.987 203.758ZM240.308 47.2948C244.947 33.5629 254.906 12.9165 262.884 0.428894L397.716 86.5712C398.04 86.0627 397.783 86.4306 396.965 87.9534C396.236 89.3103 395.369 91.0108 394.481 92.8548C393.591 94.7015 392.823 96.3933 392.256 97.7159C391.593 99.2612 391.577 99.4375 391.892 98.5053L240.308 47.2948ZM262.541 0.970612C267.719 -7.27831 274.791 -16.7394 280.089 -23.4312C282.859 -26.9309 286.134 -30.9272 289.36 -34.5143C290.795 -36.1101 293.422 -38.9752 296.663 -41.9691C298.113 -43.3092 301.438 -46.3169 306.003 -49.489C308.262 -51.0588 312.467 -53.8275 318.142 -56.4704C322.579 -58.5362 335.061 -64 352.1 -64V96C361.23 96 368.661 94.4327 373.636 93.0362C378.735 91.605 382.827 89.9054 385.684 88.5749C391.211 86.0011 395.245 83.3352 397.309 81.9003C401.486 78.9978 404.334 76.3882 405.229 75.5614C406.462 74.422 407.313 73.5485 407.665 73.1821C408.07 72.7613 408.304 72.5011 408.337 72.4644C408.386 72.4099 408.134 72.6908 407.556 73.3854C407.011 74.0408 406.327 74.8828 405.536 75.8813C403.932 77.9069 402.202 80.1827 400.671 82.2893C399.915 83.3286 399.282 84.2243 398.787 84.9434C398.268 85.6983 398.047 86.0474 398.059 86.0295L262.541 0.970612ZM352.1 -64C370.076 -64 383.102 -57.835 386.153 -56.4038C391.181 -54.0448 394.903 -51.6536 396.767 -50.4067C400.627 -47.824 403.454 -45.4427 404.632 -44.4345C407.333 -42.1213 409.448 -40.0163 410.584 -38.8616C413.139 -36.2641 415.631 -33.469 417.877 -30.7505L294.523 71.1506C294.869 71.569 295.461 72.2642 296.516 73.3367C296.902 73.7289 298.366 75.2151 300.568 77.1002C301.495 77.8943 304.11 80.1093 307.802 82.5791C309.581 83.7695 313.23 86.1176 318.196 88.4476C320.747 89.6445 324.629 91.3035 329.542 92.7497C334.169 94.1118 342.085 96 352.1 96V-64Z" fill="#9F573B" mask="url(#path-1-inside-1_34_3)"/>
<path d="M261 37.9C259.1 38.9 256.2 41.6 254.5 43.9C252.1 47.3 251.5 49.3 251.2 54.8C250.9 61 251.1 61.8 253.8 65.6C259.1 72.9 270.7 76.3 277.9 72.6C283.7 69.6 289 61.1 289 55C289 41.6 272.7 31.6 261 37.9ZM274.2 50.7C278.3 54.4 275.2 61 269.4 61C263.9 61 261.1 54.8 264.7 50.8C266.7 48.6 271.7 48.5 274.2 50.7Z" stroke="#9F573B" stroke-width="5"/>
<path d="M421 37.8C413.8 41.8 408.9 51.5 410.4 59.1C411.8 66.9 421.1 73.9 430 74C436.1 74 440.8 71.3 444.8 65.6C453.1 53.3 445.1 37.2 430.2 36.2C425.9 36 423.6 36.4 421 37.8ZM434 51C436.4 53.4 436.5 55.8 434.4 58.8C431.2 63.4 423 60.6 423 54.9C423 49.3 429.9 46.9 434 51Z" stroke="#9F573B" stroke-width="5"/>
<mask id="path-5-inside-2_34_3" fill="white">
<path d="M164.7 64.1C161.3 68.9 163.1 90.8 168.5 109.5C171.5 120 178.1 134.3 184.1 143.2C194.3 158.3 211.2 172.3 227.7 179.4C242.2 185.6 264.2 190 280.7 190C287.1 190 288.1 189.7 289.8 187.5C291.4 185.5 291.7 183.9 291.3 177.8C288.7 130.2 269.7 98.1 232.6 78.4C216.5 69.9 193.5 63.4 175.4 62.3C166.7 61.7 166.2 61.8 164.7 64.1ZM188.8 76.6C236.9 86.3 267.5 113.9 276.1 155.5C277.1 160.4 278 165.2 278 166C278 166.8 267.3 156.8 254.2 143.7C233.2 122.8 230 120 227.3 120C223.8 120 221 122.9 221 126.5C221 127.8 229.2 136.7 244.5 152C257.4 164.9 268 175.8 268 176.1C268 176.9 258.1 175.3 248.8 172.9C210.4 163.2 185.6 135.3 177.6 93.1C176.7 88.5 176 82.6 176 79.9C176 75.3 176.2 75 178.5 75C179.9 75 184.6 75.7 188.8 76.6Z"/>
</mask>
<path d="M164.7 64.1L231.709 107.801L230.87 109.088L229.982 110.341L164.7 64.1ZM168.5 109.5L245.36 87.3053L245.391 87.4137L245.422 87.5223L168.5 109.5ZM184.1 143.2L117.807 187.98L117.787 187.95L117.766 187.919L184.1 143.2ZM227.7 179.4L196.248 252.958L196.163 252.922L196.079 252.885L227.7 179.4ZM289.8 187.5L226.497 138.584L226.909 138.051L227.331 137.524L289.8 187.5ZM291.3 177.8L211.472 183.035L211.443 182.599L211.419 182.163L291.3 177.8ZM232.6 78.4L269.95 7.65425L270.035 7.6987L270.119 7.74335L232.6 78.4ZM175.4 62.3L170.547 142.153L170.221 142.133L169.896 142.11L175.4 62.3ZM188.8 76.6L172.985 155.021L172.511 154.926L172.038 154.824L188.8 76.6ZM276.1 155.5L354.443 139.304L354.464 139.404L354.484 139.503L276.1 155.5ZM254.2 143.7L310.633 86.9966L310.701 87.0639L310.769 87.1315L254.2 143.7ZM248.8 172.9L268.393 95.3364L268.592 95.3866L268.79 95.4378L248.8 172.9ZM177.6 93.1L256.111 77.7391L256.157 77.9692L256.2 78.1995L177.6 93.1ZM229.982 110.341C234.254 104.311 236.832 98.8115 238.353 95.0277C239.917 91.1366 240.85 87.8329 241.41 85.5258C242.491 81.0702 242.785 77.7927 242.879 76.5322C243.069 73.979 242.885 73.2705 243.025 74.9537C243.288 78.1181 244.132 83.0548 245.36 87.3053L91.6405 131.695C87.4679 117.245 84.7123 101.882 83.5756 88.2213C83.0157 81.492 82.6809 73.2397 83.3211 64.6459C83.64 60.3652 84.3092 54.443 85.9215 47.798C87.2843 42.1818 90.6518 30.2346 99.4181 17.8586L229.982 110.341ZM245.422 87.5223C245.398 87.4389 245.571 88.0365 246.049 89.2836C246.506 90.4733 247.098 91.8814 247.785 93.3678C248.474 94.8564 249.146 96.1819 249.721 97.2311C250.33 98.3431 250.599 98.726 250.434 98.4806L117.766 187.919C106.911 171.818 96.8138 149.803 91.5782 131.478L245.422 87.5223ZM250.393 98.4196C250.682 98.8471 252.07 100.617 254.622 102.734C255.779 103.694 256.891 104.487 257.843 105.083C258.814 105.692 259.344 105.925 259.321 105.915L196.079 252.885C165.402 239.685 136.511 215.669 117.807 187.98L250.393 98.4196ZM259.152 105.842C263.253 107.595 274.502 110 280.7 110V270C253.899 270 221.148 263.605 196.248 252.958L259.152 105.842ZM280.7 110C282.076 110 281.272 109.972 279.692 110.068C278.323 110.152 272.779 110.504 265.64 112.483C257.155 114.835 247.971 119.023 239.367 125.732C231.892 131.561 227.438 137.367 226.497 138.584L353.103 236.416C347.051 244.247 333.133 259.806 308.385 266.667C294.578 270.495 280.992 270 280.7 270V110ZM227.331 137.524C225.217 140.166 221.585 145.098 218.332 152.038C214.976 159.194 213.195 165.962 212.296 171.603C211.487 176.68 211.456 180.504 211.46 181.848C211.464 183.253 211.529 183.914 211.472 183.035L371.129 172.565C371.297 175.137 372.116 185.397 370.304 196.772C367.532 214.173 360.143 227.634 352.27 237.476L227.331 137.524ZM211.419 182.163C210.641 167.91 207.709 161.206 206.012 158.334C204.629 155.993 202.151 152.81 195.082 149.057L270.119 7.74335C300.149 23.6896 325.721 46.4066 343.763 76.9409C361.491 106.944 369.36 140.09 371.181 173.437L211.419 182.163ZM195.25 149.146C189.072 145.884 177.134 142.553 170.547 142.153L180.253 -17.5527C209.867 -15.7529 243.929 -6.08389 269.95 7.65425L195.25 149.146ZM169.896 142.11C167.487 141.944 167.352 141.953 167.854 141.968C168.235 141.98 169.553 142.015 171.414 141.949C173.228 141.885 176.547 141.695 180.73 140.986C190.422 139.341 203.836 135.035 216.56 124.582C222.058 120.066 225.855 115.67 228.133 112.771C230.225 110.109 231.62 107.938 231.709 107.801L97.6912 20.3986C97.9303 20.0321 104.063 9.93208 115.002 0.945953C128.515 -10.1535 142.878 -14.879 153.97 -16.7606C162.835 -18.2645 170.306 -18.0307 172.683 -17.9589C175.773 -17.8656 178.963 -17.6443 180.904 -17.5104L169.896 142.11ZM204.615 -1.82127C277.868 12.9512 338.148 60.4792 354.443 139.304L197.757 171.696C196.72 166.683 195.118 164.791 193.637 163.453C191.635 161.645 185.965 157.639 172.985 155.021L204.615 -1.82127ZM354.484 139.503C355.051 142.28 355.639 145.269 356.118 147.886C356.348 149.143 356.63 150.73 356.882 152.343C357.004 153.12 357.191 154.363 357.369 155.817C357.414 156.187 358 160.589 358 166H198C198 167.758 198.059 169.197 198.11 170.149C198.162 171.145 198.226 171.979 198.278 172.59C198.379 173.78 198.487 174.709 198.55 175.223C198.675 176.242 198.784 176.941 198.806 177.079C198.858 177.413 198.852 177.344 198.732 176.689C198.511 175.481 198.149 173.62 197.716 171.497L354.484 139.503ZM358 166C358 176.337 355.92 194.604 343.048 212.589C329.085 232.099 309.65 241.282 293.703 244.481C269.047 249.427 249.891 240.991 248.269 240.345C238.854 236.594 232.191 231.734 231.673 231.372C228.031 228.826 225.131 226.349 224.223 225.575C221.575 223.318 218.749 220.72 216.337 218.462C211.201 213.654 204.596 207.233 197.632 200.269L310.769 87.1315C316.904 93.2672 322.2 98.3961 325.688 101.663C327.589 103.442 328.256 104.014 328.024 103.816C327.903 103.712 327.515 103.383 326.93 102.915C326.469 102.545 325.174 101.516 323.357 100.246C323.157 100.106 316.736 95.3916 307.484 91.7058C304.641 90.5729 299.782 88.8192 293.513 87.5743C287.86 86.4518 276.381 84.7685 262.235 87.6061C246.308 90.8008 226.889 99.9752 212.937 119.47C200.075 137.441 198 155.688 198 166H358ZM197.767 200.403C192.544 195.205 188.696 191.401 185.771 188.559C182.704 185.579 181.387 184.377 181.024 184.058C180.894 183.944 181.478 184.467 182.577 185.316C183.611 186.114 185.953 187.864 189.32 189.831C192.778 191.853 198.134 194.589 205.145 196.716C212.644 198.991 220.149 200 227.3 200V40C262.924 40 285.882 63.2022 286.751 63.9673C292.772 69.2676 300.803 77.2133 310.633 86.9966L197.767 200.403ZM227.3 200C270.409 200 301 164.617 301 126.5H141C141 81.1829 177.191 40 227.3 40V200ZM301 126.5C301 116.619 299.154 108.856 297.893 104.481C296.539 99.7863 295.001 96.0951 293.924 93.7254C291.826 89.1109 289.75 85.7604 288.795 84.265C286.797 81.1387 285.14 79.0925 284.922 78.8205C284.218 77.9427 284.272 78.0829 285.843 79.7873C288.702 82.89 293.678 88.0406 301.069 95.4315L187.932 208.569C180.022 200.659 173.248 193.71 168.182 188.213C165.791 185.617 162.839 182.332 160.119 178.942C158.893 177.414 156.476 174.339 153.97 170.418C152.76 168.525 150.493 164.835 148.268 159.94C146.991 157.131 141 144.207 141 126.5H301ZM301.069 95.4315C307.708 102.071 313.834 108.273 318.388 112.948C320.627 115.246 322.688 117.382 324.303 119.092C325.04 119.873 326.088 120.99 327.127 122.151C327.537 122.608 328.671 123.878 329.975 125.485C330.494 126.123 332.105 128.113 333.943 130.792C334.772 132 336.768 134.962 338.874 138.987C339.928 141.001 341.712 144.606 343.388 149.326C344.724 153.089 348 162.969 348 176.1H188C188 183.202 188.948 189.031 189.804 192.992C190.685 197.07 191.746 200.426 192.608 202.856C194.281 207.569 196.062 211.165 197.111 213.169C199.207 217.175 201.187 220.112 201.996 221.291C203.792 223.91 205.342 225.819 205.78 226.359C206.924 227.766 207.817 228.758 207.911 228.864C208.32 229.32 208.439 229.437 207.981 228.952C207.206 228.131 205.811 226.679 203.787 224.602C199.816 220.527 194.192 214.829 187.932 208.569L301.069 95.4315ZM348 176.1C348 226.774 306.818 246.616 299.06 249.899C287.703 254.704 277.955 255.656 275.309 255.914C268.198 256.606 262.398 256.197 260.732 256.08C255.977 255.748 251.601 255.084 248.868 254.633C242.75 253.624 235.623 252.12 228.81 250.362L268.79 95.4378C271.277 96.0797 273.75 96.5757 274.908 96.7666C275.811 96.9157 274.492 96.6518 271.884 96.4696C271.291 96.4282 266.338 96.031 259.804 96.6671C257.447 96.8966 247.92 97.8039 236.713 102.546C229.105 105.765 188 125.526 188 176.1H348ZM229.207 250.464C157.339 232.309 112.141 177.32 99 108L256.2 78.1995C257.971 87.5428 260.733 91.0733 261.519 91.9558C262.05 92.5509 263.449 94.0876 268.393 95.3364L229.207 250.464ZM99.0887 108.461C97.734 101.537 96.0001 89.9477 96.0001 79.9H256C256 78.6018 255.961 77.6406 255.937 77.1586C255.911 76.6309 255.885 76.2766 255.873 76.1293C255.851 75.8559 255.849 75.8916 255.889 76.2231C255.925 76.5258 255.975 76.8896 256.03 77.2447C256.087 77.6143 256.121 77.7878 256.111 77.7391L99.0887 108.461ZM96.0001 79.9C96.0001 78.9758 95.9781 75.0589 96.3285 70.7334C96.548 68.0252 97.4855 54.0792 105.388 38.8598C116.519 17.4223 135.356 3.98332 154.699 -1.66946C162.171 -3.8532 168.39 -4.49821 171.655 -4.74693C174.982 -5.00043 177.674 -5 178.5 -5V155C178.751 155 180.934 155.01 183.81 154.791C186.623 154.576 192.449 153.991 199.58 151.907C207.175 149.687 216.865 145.593 226.433 137.999C236.171 130.27 242.926 121.183 247.387 112.59C254.952 98.0208 255.696 85.0123 255.806 83.6541C256.047 80.6786 256 78.5242 256 79.9H96.0001ZM178.5 -5C186.244 -5 193.664 -3.77605 194.725 -3.61333C198.034 -3.10594 201.811 -2.42802 205.562 -1.62419L172.038 154.824C171.589 154.728 170.916 154.606 170.475 154.538C170.26 154.505 170.489 154.545 171.1 154.615C171.407 154.649 172.081 154.722 173.015 154.794C173.495 154.832 174.172 154.878 174.998 154.918C175.786 154.955 177 155 178.5 155V-5Z" fill="#9F573B" mask="url(#path-5-inside-2_34_3)"/>
<mask id="path-7-inside-3_34_3" fill="white">
<path d="M513.4 63.6C488.1 67.7999 463.1 80.2 445.2 97.4C426.6 115.2 416 138.3 413 167.1C411.5 182.3 411.6 185.6 414.1 188.1C416.2 190.2 416.9 190.3 427.9 189.7C489.8 186.5 529.4 151.5 539 91.3C540.7 80.5 540.8 65.7 539.1 63.7C537.4 61.5999 525.5 61.5 513.4 63.6ZM528 78.8999C528 85.2 525.3 99 522.1 108.7C514.2 132.9 500.2 151.2 481 162.6C476.9 165 471 168 468 169.1C461.2 171.7 446.2 175.5 439.5 176.4L434.5 177L458.1 153.3C471.1 140.2 482 128.7 482.4 127.7C483 125.8 481.5 122 479.6 120.8C475.8 118.2 473.6 119.9 449.6 143.7L425.8 167.5L426.4 161.9C426.7 158.8 428.1 152.3 429.5 147.4C438.5 116.3 460.7 93.8999 494.3 82.1C503.8 78.7999 519.4 75.2 524.8 75.1C527.9 74.9999 528 75.2 528 78.8999Z"/>
</mask>
<path d="M513.4 63.6L527.08 142.422L526.791 142.472L526.501 142.52L513.4 63.6ZM445.2 97.4L500.629 155.085L500.571 155.142L500.512 155.198L445.2 97.4ZM413 167.1L333.387 159.243L333.408 159.027L333.43 158.811L413 167.1ZM427.9 189.7L423.543 109.819L423.656 109.813L423.77 109.807L427.9 189.7ZM539 91.3L618.027 103.739L618.014 103.819L618.002 103.898L539 91.3ZM539.1 63.7L478.145 115.512L477.524 114.781L476.92 114.036L539.1 63.7ZM522.1 108.7L446.05 83.8736L446.088 83.7552L446.127 83.6368L522.1 108.7ZM481 162.6L521.843 231.388L521.629 231.515L521.414 231.641L481 162.6ZM468 169.1L439.429 94.3758L439.943 94.1793L440.46 93.9898L468 169.1ZM439.5 176.4L450.151 255.688L449.592 255.763L449.032 255.83L439.5 176.4ZM434.5 177L444.032 256.43L215.157 283.895L377.812 120.551L434.5 177ZM458.1 153.3L514.885 209.651L514.836 209.7L514.788 209.749L458.1 153.3ZM482.4 127.7L558.687 151.79L557.787 154.638L556.678 157.411L482.4 127.7ZM479.6 120.8L436.881 188.439L435.638 187.654L434.425 186.825L479.6 120.8ZM449.6 143.7L393.031 87.1314L393.15 87.0131L393.269 86.8952L449.6 143.7ZM425.8 167.5L482.369 224.068L322.111 384.326L346.255 158.977L425.8 167.5ZM426.4 161.9L506.028 169.606L505.988 170.014L505.945 170.423L426.4 161.9ZM429.5 147.4L352.578 125.422L352.615 125.292L352.653 125.161L429.5 147.4ZM494.3 82.1L467.792 6.61934L467.92 6.57419L468.049 6.52948L494.3 82.1ZM524.8 75.1L527.379 155.058L526.83 155.076L526.281 155.086L524.8 75.1ZM526.501 142.52C516.6 144.164 506.505 149.439 500.629 155.085L389.771 39.7147C419.695 10.9604 459.6 -8.56363 500.299 -15.32L526.501 142.52ZM500.512 155.198C497.472 158.107 493.89 162.71 492.569 175.388L333.43 158.811C338.11 113.89 355.728 72.2928 389.888 39.6021L500.512 155.198ZM492.613 174.957C492.255 178.583 492.089 180.555 492.017 181.66C491.927 183.033 492.101 181.417 491.953 178.417C491.805 175.434 491.211 167.507 487.553 157.769C483.328 146.523 476.92 137.783 470.669 131.531L357.531 244.668C350.03 237.167 342.672 227.077 337.772 214.034C333.439 202.499 332.445 192.329 332.147 186.308C331.647 176.181 332.796 165.232 333.387 159.243L492.613 174.957ZM470.669 131.531C470.602 131.465 464.355 124.88 454.377 119.349C443.265 113.19 433.088 111.173 426.978 110.457C424.182 110.129 422.047 110.053 421.006 110.03C420.435 110.018 420.003 110.018 419.75 110.019C419.494 110.021 419.35 110.025 419.348 110.025C419.344 110.025 419.43 110.023 419.632 110.015C419.832 110.007 420.107 109.995 420.478 109.978C421.245 109.942 422.217 109.891 423.543 109.819L432.257 269.581C430.264 269.69 418.732 270.586 408.347 269.368C400.425 268.439 388.991 266.041 376.814 259.292C365.77 253.17 358.648 245.785 357.531 244.668L470.669 131.531ZM423.77 109.807C440.428 108.945 447.363 104.34 450.037 101.973C452.585 99.7166 457.565 93.9576 459.998 78.7017L618.002 103.898C610.835 148.842 591.214 190.683 556.088 221.777C521.087 252.76 477.272 267.254 432.03 269.593L423.77 109.807ZM459.973 78.8605C460.114 77.9651 460.317 75.6394 460.326 73.8226C460.33 72.8477 460.267 73.7982 460.525 76.1274C460.639 77.1619 461.016 80.3785 462.112 84.697C462.669 86.8928 463.716 90.5934 465.575 95.0457C467.212 98.9677 470.916 107.008 478.145 115.512L600.055 11.8881C612.911 27.0128 616.594 42.9681 617.195 45.3373C618.604 50.8902 619.239 55.6755 619.556 58.5475C620.22 64.5517 620.344 70.2523 620.324 74.5773C620.283 83.3605 619.586 93.8348 618.027 103.739L459.973 78.8605ZM476.92 114.036C483.767 122.493 491.001 127.855 496.028 131.021C501.179 134.266 505.762 136.301 508.931 137.537C515.059 139.927 519.987 140.902 522.193 141.291C526.783 142.099 529.691 142.074 529.724 142.074C530.324 142.077 529.072 142.076 527.08 142.422L499.72 -15.2218C509.828 -16.976 520.576 -17.9771 530.575 -17.9239C535.309 -17.8987 542.267 -17.6365 549.944 -16.2844C553.694 -15.624 559.925 -14.3135 567.076 -11.5238C572.526 -9.39821 588.156 -2.84726 601.28 13.3641L476.92 114.036ZM608 78.8999C608 97.1196 602.61 120.01 598.073 133.763L446.127 83.6368C446.242 83.2886 446.51 82.4136 446.854 81.0626C447.188 79.753 447.504 78.3539 447.762 77.0434C448.03 75.6881 448.159 74.8202 448.196 74.5346C448.212 74.409 448.178 74.647 448.133 75.2006C448.095 75.6759 448 76.9882 448 78.8999H608ZM598.15 133.526C585.084 173.551 559.941 208.768 521.843 231.388L440.157 93.8116C440.459 93.632 443.315 92.2492 446.05 83.8736L598.15 133.526ZM521.414 231.641C515.874 234.884 505.183 240.675 495.54 244.21L440.46 93.9898C439.89 94.1988 439.422 94.38 439.074 94.5181C438.722 94.6578 438.439 94.7747 438.234 94.8612C438.026 94.9484 437.868 95.0174 437.762 95.0639C437.655 95.1109 437.584 95.1432 437.55 95.1585C437.489 95.1863 437.52 95.1729 437.645 95.1126C437.767 95.0542 437.94 94.9693 438.159 94.8591C438.377 94.7496 438.618 94.6263 438.873 94.4932C439.128 94.3602 439.38 94.2261 439.621 94.0958C439.863 93.9651 440.075 93.8481 440.251 93.7497C440.429 93.65 440.54 93.5853 440.586 93.5588L521.414 231.641ZM496.571 243.824C484.042 248.615 463.031 253.958 450.151 255.688L428.849 97.1121C428.069 97.2169 427.723 97.2863 427.948 97.2451C428.117 97.2141 428.511 97.1382 429.139 97.0043C430.415 96.7323 432.09 96.3415 433.932 95.8713C435.774 95.4013 437.454 94.9362 438.753 94.5488C440.293 94.0893 440.376 94.0138 439.429 94.3758L496.571 243.824ZM449.032 255.83L444.032 256.43L424.968 97.5698L429.968 96.9698L449.032 255.83ZM377.812 120.551L401.412 96.8511L514.788 209.749L491.188 233.449L377.812 120.551ZM401.315 96.9486C407.497 90.7196 413.041 85.0084 416.94 80.8995C418.942 78.7892 420.202 77.4261 420.802 76.7589C421.17 76.3507 420.86 76.6801 420.219 77.4518C420.022 77.6893 419.726 78.0495 419.363 78.5068C419.018 78.9423 418.473 79.6387 417.818 80.5275C417.231 81.3229 416.122 82.8575 414.832 84.8858C414.17 85.9262 413.238 87.4445 412.205 89.331C411.677 90.2955 411.054 91.4799 410.389 92.8525C409.733 94.2085 408.941 95.9411 408.122 97.9887L556.678 157.411C553.89 164.381 550.719 169.369 549.832 170.763C548.477 172.894 547.282 174.551 546.59 175.489C545.191 177.386 543.96 178.887 543.329 179.648C541.965 181.291 540.637 182.785 539.723 183.8C537.761 185.98 535.408 188.498 533.01 191.025C528.109 196.192 521.703 202.78 514.885 209.651L401.315 96.9486ZM406.113 103.609C401.463 118.337 402.389 130.621 403.19 136.6C404.113 143.501 405.881 149.274 407.707 153.818C409.553 158.41 412.178 163.54 415.949 168.789C419.389 173.579 425.994 181.563 436.881 188.439L522.319 53.1608C543.536 66.5606 552.697 85.5205 556.168 94.1566C559.08 101.403 567.371 124.289 558.687 151.79L406.113 103.609ZM434.425 186.825C436.616 188.323 443.275 192.767 453.057 196.006C464.1 199.663 476.236 200.878 488.432 199.067C499.543 197.418 507.753 193.691 512.287 191.283C516.791 188.891 519.767 186.666 520.742 185.921C522.423 184.636 522.439 184.421 519.037 187.66C516.072 190.482 511.985 194.501 505.931 200.505L393.269 86.8952C403.235 77.0123 414.391 65.8204 423.608 58.7789C427.34 55.9279 442.466 44.1375 464.936 40.8016C495.312 36.292 517.054 49.4926 524.775 54.7754L434.425 186.825ZM506.169 200.268L482.369 224.068L369.231 110.931L393.031 87.1314L506.169 200.268ZM346.255 158.977L346.855 153.377L505.945 170.423L505.345 176.023L346.255 158.977ZM346.772 154.194C347.752 144.066 350.633 132.229 352.578 125.422L506.422 169.378C506.403 169.444 506.365 169.579 506.312 169.782C506.258 169.982 506.197 170.22 506.131 170.488C506.065 170.755 505.999 171.032 505.935 171.311C505.87 171.59 505.812 171.852 505.762 172.087C505.711 172.324 505.673 172.511 505.648 172.64C505.621 172.774 505.617 172.805 505.629 172.737C505.635 172.699 505.648 172.622 505.667 172.506C505.685 172.391 505.712 172.219 505.744 171.995C505.776 171.774 505.818 171.469 505.865 171.092C505.911 170.719 505.969 170.216 506.028 169.606L346.772 154.194ZM352.653 125.161C369.624 66.5183 412.575 26.0109 467.792 6.61934L520.808 157.581C508.825 161.789 507.376 166.082 506.347 169.639L352.653 125.161ZM468.049 6.52948C476.316 3.65782 485.532 1.1884 493.16 -0.565567C498.422 -1.77545 511.229 -4.66245 523.319 -4.88634L526.281 155.086C527.912 155.056 529.187 154.972 529.977 154.91C530.8 154.845 531.417 154.777 531.781 154.734C532.471 154.652 532.746 154.598 532.505 154.639C532.008 154.724 530.804 154.954 529.014 155.365C527.29 155.762 525.463 156.225 523.784 156.693C522.029 157.182 520.938 157.536 520.551 157.67L468.049 6.52948ZM522.221 -4.85846C522.825 -4.87794 524.575 -4.93468 526.662 -4.91289C528.636 -4.89227 532.707 -4.79684 537.727 -4.09232C547.797 -2.67902 571.032 2.55449 589.272 24.6643C604.941 43.6567 607.006 63.793 607.477 68.1759C607.843 71.5767 607.932 74.3563 607.966 75.7143C608.001 77.1466 608 78.4204 608 78.8999H448C448 76.8779 447.905 80.7298 448.395 85.2865C448.75 88.5944 450.596 107.993 465.853 126.486C483.681 148.095 506.31 153.066 515.489 154.355C520.063 154.997 523.617 155.064 524.993 155.078C525.823 155.087 526.464 155.078 526.808 155.072C526.992 155.069 527.136 155.065 527.225 155.063C527.314 155.06 527.371 155.059 527.379 155.058L522.221 -4.85846Z" fill="#9F573B" mask="url(#path-7-inside-3_34_3)"/>
<path d="M147 152.9C145.1 153.9 142.2 156.9 140.5 159.5C138 163.5 137.5 165.4 137.5 170.6C137.5 176 137.9 177.3 140.6 180.6C146.7 188.2 156.5 190.9 164.3 187.1C175.6 181.6 178.5 166.2 170.1 156.6C165.3 151.1 153.8 149.3 147 152.9ZM161.3 166.2C163.5 168.9 163.5 171.5 161 174C156.8 178.2 150 175.4 150 169.4C150 163.3 157.1 161.2 161.3 166.2Z" stroke="#9F573B" stroke-width="5"/>
<path d="M524.9 153.1C515.1 158.8 512.3 172.8 519.2 181.6C521.9 184.9 530.4 189 534.9 189C543 189 551.1 182.1 553.1 173.3C554.8 165.7 550.4 156.8 543 153C537.7 150.3 529.7 150.4 524.9 153.1ZM538.4 165.1C541.5 167.6 541.8 171.2 539 174C534.7 178.3 527.6 174.9 528.2 168.7C528.4 166.5 529.3 165.2 531 164.3C534.4 162.6 535.3 162.7 538.4 165.1Z" stroke="#9F573B" stroke-width="5"/>
<mask id="path-11-inside-4_34_3" fill="white">
<path d="M205.2 196.1C188.6 197.6 165 204.4 150.2 211.9C127.1 223.5 101 243.1 101 248.7C101 251.6 107.6 258.9 117.5 267C149.9 293.4 190 307.3 224.4 304.1C257.2 301.1 286 287.6 315.8 261C325 252.8 327.1 249.6 325.4 246.1C324 243.4 308.3 229.6 298.4 222.4C288.3 215.1 266.8 204.1 256.7 201.1C241.1 196.4 221.8 194.5 205.2 196.1ZM240.1 210C260.4 214.2 279.2 223 297.9 237.4L303.3 241.5L257.2 242C216 242.4 210.9 242.7 209.4 244.2C207.2 246.3 207.3 250.6 209.5 253C211.2 254.9 213.1 255 257.4 255.2L303.5 255.5L292.5 263.8C279.5 273.5 259.5 283.9 246.8 287.5C211.8 297.3 174.3 290.5 141 268.4C131.8 262.3 117 250.2 117 248.8C117 248.4 121.8 244.4 127.7 240C145.7 226.7 172.2 214.7 192.5 210.7C208.9 207.4 226.1 207.2 240.1 210Z"/>
</mask>
<path d="M205.2 196.1L212.875 275.731L212.637 275.754L212.4 275.775L205.2 196.1ZM150.2 211.9L186.362 283.26L186.232 283.326L186.101 283.392L150.2 211.9ZM117.5 267L66.9662 329.019L66.9035 328.968L66.841 328.917L117.5 267ZM224.4 304.1L216.99 224.444L217.052 224.438L217.113 224.433L224.4 304.1ZM315.8 261L262.527 201.318L262.549 201.298L262.57 201.279L315.8 261ZM325.4 246.1L396.42 209.275L396.903 210.205L397.361 211.148L325.4 246.1ZM298.4 222.4L345.263 157.563L345.358 157.632L345.454 157.701L298.4 222.4ZM256.7 201.1L233.921 277.789L233.772 277.744L233.622 277.699L256.7 201.1ZM240.1 210L255.789 131.554L256.049 131.606L256.308 131.659L240.1 210ZM297.9 237.4L249.523 301.116L249.306 300.951L249.09 300.785L297.9 237.4ZM303.3 241.5L351.677 177.784L537.62 318.963L304.168 321.495L303.3 241.5ZM257.2 242L258.068 321.995L258.022 321.996L257.977 321.996L257.2 242ZM209.4 244.2L265.969 300.769L265.311 301.426L264.638 302.068L209.4 244.2ZM209.5 253L268.472 198.942L268.798 199.297L269.119 199.656L209.5 253ZM257.4 255.2L257.761 175.201L257.841 175.201L257.921 175.202L257.4 255.2ZM303.5 255.5L304.021 175.502L540.304 177.039L351.686 319.36L303.5 255.5ZM292.5 263.8L340.686 327.66L340.514 327.79L340.342 327.918L292.5 263.8ZM246.8 287.5L268.618 364.468L268.494 364.503L268.37 364.537L246.8 287.5ZM141 268.4L185.209 201.725L185.223 201.734L185.237 201.744L141 268.4ZM127.7 240L79.8741 175.87L80.0162 175.764L80.1588 175.658L127.7 240ZM192.5 210.7L208.281 289.128L208.124 289.16L207.966 289.191L192.5 210.7ZM212.4 275.775C205.937 276.359 192.161 280.322 186.362 283.26L114.038 140.54C137.839 128.478 171.263 118.841 198 116.425L212.4 275.775ZM186.101 283.392C179.163 286.876 170.874 292.103 164.897 296.581C161.777 298.917 161.082 299.712 161.992 298.803C162.298 298.497 164.861 295.968 167.913 291.566C169.47 289.32 172.174 285.135 174.699 279.309C177.012 273.975 181 263.137 181 248.7H21C21 221.896 34.2552 203.531 36.4204 200.408C40.9898 193.817 45.7722 188.747 48.8863 185.634C55.4117 179.113 62.6852 173.233 68.9783 168.519C81.8256 158.897 98.1372 148.524 114.299 140.408L186.101 283.392ZM181 248.7C181 234.9 177.336 224.602 175.445 219.936C173.295 214.632 171.017 210.802 169.732 208.778C167.195 204.779 165.117 202.511 164.932 202.306C164.303 201.609 165.211 202.672 168.159 205.083L66.841 328.917C59.8888 323.228 52.5472 316.591 46.1432 309.494C43.0705 306.089 38.7239 300.946 34.6396 294.51C32.8836 291.743 21 273.953 21 248.7H181ZM168.034 204.981C187.775 221.067 207.675 225.31 216.99 224.444L231.81 383.756C172.325 389.29 112.025 365.734 66.9662 329.019L168.034 204.981ZM217.113 224.433C229.624 223.288 242.879 218.855 262.527 201.318L369.073 320.682C329.121 356.345 284.776 378.912 231.687 383.767L217.113 224.433ZM262.57 201.279C264.264 199.77 264.5 199.486 264.025 199.975C263.8 200.207 260.83 203.21 257.502 208.358C254.061 213.682 248.094 224.566 246.394 239.976C244.544 256.734 248.559 271.006 253.439 281.052L397.361 211.148C403.091 222.945 407.481 238.929 405.428 257.527C403.524 274.778 396.777 287.631 391.873 295.217C383.709 307.846 372.831 317.333 369.03 320.721L262.57 201.279ZM254.38 282.925C255.297 284.696 256.163 286.198 256.888 287.397C257.62 288.606 258.297 289.649 258.874 290.505C260.004 292.182 260.998 293.513 261.702 294.422C263.068 296.188 264.174 297.442 264.68 298.007C265.257 298.65 265.667 299.077 265.826 299.241C266.004 299.424 266.073 299.49 266.005 299.424C265.854 299.276 265.448 298.886 264.752 298.246C264.077 297.627 263.25 296.884 262.298 296.048C260.371 294.355 258.201 292.519 256.104 290.812C253.934 289.046 252.292 287.786 251.346 287.099L345.454 157.701C353.04 163.219 361.43 170.165 367.877 175.827C371.182 178.73 374.745 181.968 377.961 185.117C379.513 186.637 381.623 188.76 383.808 191.196C384.21 191.645 391.042 198.902 396.42 209.275L254.38 282.925ZM251.537 287.237C251.83 287.449 250.962 286.821 248.615 285.447C246.475 284.193 243.878 282.771 241.143 281.373C238.39 279.966 235.931 278.806 234.078 277.998C231.786 276.999 231.938 277.199 233.921 277.789L279.479 124.411C291.851 128.086 305.097 134.374 313.957 138.902C323.425 143.741 335.429 150.455 345.263 157.563L251.537 287.237ZM233.622 277.699C228.095 276.034 219.246 275.117 212.875 275.731L197.525 116.469C224.354 113.883 254.105 116.766 279.778 124.501L233.622 277.699ZM256.308 131.659C289.655 138.558 319.424 153.004 346.71 174.015L249.09 300.785C238.976 292.996 231.145 289.842 223.892 288.341L256.308 131.659ZM346.277 173.684L351.677 177.784L254.923 305.216L249.523 301.116L346.277 173.684ZM304.168 321.495L258.068 321.995L256.332 162.005L302.432 161.505L304.168 321.495ZM257.977 321.996C247.708 322.096 239.913 322.187 233.931 322.29C227.814 322.395 224.248 322.501 222.189 322.598C221.192 322.645 221.041 322.668 221.432 322.633C221.689 322.611 223.517 322.45 226.189 321.958C228.638 321.507 234.274 320.345 241.152 317.459C248.984 314.172 257.829 308.908 265.969 300.769L152.831 187.631C170.539 169.924 190.741 165.795 197.227 164.601C204.277 163.304 210.99 162.949 214.636 162.777C223.091 162.377 236.399 162.198 256.423 162.004L257.977 321.996ZM264.638 302.068C283.65 283.921 288.011 261.723 287.791 247.266C287.564 232.413 282.568 214.319 268.472 198.942L150.528 307.058C134.232 289.281 128.086 267.837 127.809 249.709C127.539 231.977 132.95 206.58 154.162 186.332L264.638 302.068ZM269.119 199.656C266.678 196.928 260.986 190.921 252.095 185.461C243.647 180.273 235.945 177.784 231.029 176.545C226.458 175.392 223.036 175.016 222.075 174.916C220.902 174.792 220.424 174.788 221.166 174.823C222.726 174.895 225.922 174.977 232.301 175.043C238.457 175.108 246.64 175.151 257.761 175.201L257.039 335.199C235.935 335.104 222.138 335.038 213.784 334.652C210.746 334.512 201.674 334.15 191.915 331.69C185.89 330.171 177.414 327.361 168.363 321.802C158.871 315.973 152.747 309.547 149.881 306.344L269.119 199.656ZM257.921 175.202L304.021 175.502L302.979 335.498L256.879 335.198L257.921 175.202ZM351.686 319.36L340.686 327.66L244.314 199.94L255.314 191.64L351.686 319.36ZM340.342 327.918C321.368 342.076 292.689 357.644 268.618 364.468L224.982 210.533C224.07 210.791 224.478 210.734 226.331 209.951C228.016 209.239 230.2 208.221 232.684 206.932C237.986 204.18 242.38 201.382 244.658 199.682L340.342 327.918ZM268.37 364.537C208.505 381.299 147.208 368.535 96.7627 335.056L185.237 201.744C201.392 212.465 215.095 213.301 225.23 210.463L268.37 364.537ZM96.7914 335.075C89.2509 330.076 81.03 323.77 74.9345 318.79C71.8498 316.269 68.2364 313.215 64.924 310.129C63.4613 308.767 60.7042 306.15 57.7909 302.864C56.477 301.382 53.5485 298.004 50.4757 293.366C48.9452 291.056 46.3219 286.86 43.8439 281.241C41.8355 276.687 37 264.83 37 248.8H197C197 232.857 192.193 221.109 190.242 216.683C187.82 211.192 185.281 207.145 183.861 205.001C181.01 200.697 178.408 197.729 177.517 196.724C176.33 195.385 175.393 194.435 174.952 193.994C174.457 193.5 174.114 193.178 173.988 193.061C173.739 192.829 174.4 193.443 176.166 194.885C179.77 197.83 183.549 200.624 185.209 201.725L96.7914 335.075ZM37 248.8C37 231.1 42.9272 218.256 44.7966 214.333C47.3913 208.889 50.0612 204.888 51.4909 202.844C54.4095 198.669 57.1038 195.679 58.1597 194.523C60.5884 191.865 62.7438 189.862 63.6079 189.065C65.7043 187.131 67.7609 185.401 69.1973 184.215C72.3263 181.631 76.0635 178.712 79.8741 175.87L175.526 304.13C173.437 305.688 171.824 306.969 171.078 307.585C170.577 307.999 171.064 307.619 172.076 306.685C172.398 306.388 174.133 304.797 176.276 302.452C177.189 301.452 179.774 298.593 182.62 294.524C184.013 292.531 186.655 288.576 189.231 283.171C191.082 279.287 197 266.475 197 248.8H37ZM80.1588 175.658C106.833 155.949 144.145 138.69 177.034 132.209L207.966 289.191C200.255 290.71 184.567 297.451 175.241 304.342L80.1588 175.658ZM176.719 132.272C202.039 127.177 230.029 126.402 255.789 131.554L224.411 288.446C222.171 287.998 215.761 287.623 208.281 289.128L176.719 132.272Z" fill="#9F573B" mask="url(#path-11-inside-4_34_3)"/>
<mask id="path-13-inside-5_34_3" fill="white">
<path d="M475 195.6C447.1 199.1 421 210.6 396.2 230.5C391.7 234.2 385.3 239.7 382 242.9C374.1 250.4 374.1 252.2 381.8 259.4C417.6 293 454.1 307.4 494.6 304C526.7 301.2 557.8 288.5 586.7 266.1C598.1 257.3 601.3 253.6 600.5 250.1C599.8 247 590.3 237.6 579.4 229.3C558.6 213.5 535.3 202.6 512 197.8C502.8 196 482.2 194.7 475 195.6ZM513 210.9C517.7 212 523.8 213.6 526.5 214.5C533.6 216.9 552.5 226 559.3 230.4C566.8 235.2 585 249.9 585 251.1C585 252.5 569.7 263.5 558.6 270.1C534.5 284.4 508.3 292 483.4 292C454.8 292 428.2 281.8 401.9 260.8L398.5 258H444C483.6 258 489.8 257.8 491.8 256.4C494.5 254.6 494.8 249.5 492.3 246.8C490.8 245.1 488 245 444.6 245L398.5 244.9L402 241.9C408.9 236 427.7 224 437 219.6C447.1 214.8 460.6 210.6 470.5 209C479.7 207.6 503.1 208.6 513 210.9Z"/>
</mask>
<path d="M475 195.6L465.042 116.222L465.06 116.22L465.077 116.218L475 195.6ZM396.2 230.5L345.392 168.706L345.76 168.403L346.132 168.104L396.2 230.5ZM382 242.9L437.692 300.332L437.388 300.627L437.081 300.918L382 242.9ZM381.8 259.4L436.44 200.966L436.494 201.017L436.548 201.067L381.8 259.4ZM494.6 304L501.552 383.697L501.422 383.709L501.293 383.72L494.6 304ZM586.7 266.1L537.691 202.869L537.753 202.821L537.816 202.773L586.7 266.1ZM600.5 250.1L522.511 267.926L522.488 267.823L522.465 267.721L600.5 250.1ZM579.4 229.3L627.791 165.595L627.829 165.624L627.866 165.652L579.4 229.3ZM512 197.8L527.361 119.289L527.752 119.365L528.142 119.445L512 197.8ZM513 210.9L531.104 132.975L531.167 132.99L531.231 133.005L513 210.9ZM526.5 214.5L551.798 138.605L551.958 138.659L552.118 138.713L526.5 214.5ZM559.3 230.4L516.176 297.782L516.008 297.674L515.84 297.566L559.3 230.4ZM558.6 270.1L599.486 338.863L599.455 338.881L599.423 338.9L558.6 270.1ZM401.9 260.8L351.982 323.316L351.51 322.939L351.043 322.554L401.9 260.8ZM398.5 258L347.643 319.754L175.513 178H398.5V258ZM491.8 256.4L445.923 190.861L446.668 190.34L447.424 189.836L491.8 256.4ZM492.3 246.8L433.599 301.153L432.948 300.449L432.313 299.73L492.3 246.8ZM444.6 245V325H444.513L444.427 325L444.6 245ZM398.5 244.9L398.327 324.9L182.785 324.432L346.437 184.159L398.5 244.9ZM402 241.9L349.937 181.159L349.973 181.128L350.009 181.097L402 241.9ZM437 219.6L471.339 291.855L471.276 291.885L471.214 291.915L437 219.6ZM470.5 209L457.736 130.025L458.1 129.966L458.465 129.91L470.5 209ZM484.958 274.978C473.446 276.422 460.943 281.12 446.268 292.896L346.132 168.104C381.057 140.08 420.754 121.778 465.042 116.222L484.958 274.978ZM447.008 292.294C445.329 293.675 443.158 295.506 441.123 297.275C440.118 298.148 439.252 298.914 438.568 299.531C437.822 300.204 437.573 300.447 437.692 300.332L326.308 185.468C332.05 179.9 340.523 172.709 345.392 168.706L447.008 292.294ZM437.081 300.918C435.261 302.645 438.291 300.031 441.814 295.28C445.536 290.26 455.795 275.015 456.045 252.137C456.3 228.814 446.031 213.006 441.814 207.299C438.021 202.164 434.657 199.299 436.44 200.966L327.161 317.834C325.093 315.901 318.842 310.111 313.13 302.379C306.994 294.075 295.775 275.999 296.055 250.388C296.33 225.222 307.589 207.671 313.293 199.979C318.796 192.557 324.789 186.904 326.919 184.882L437.081 300.918ZM436.548 201.067C459.506 222.615 474.58 225.399 487.908 224.28L501.293 383.72C433.62 389.401 375.694 363.385 327.052 317.732L436.548 201.067ZM487.648 224.303C502.66 222.993 519.445 217.012 537.691 202.869L635.709 329.331C596.155 359.988 550.74 379.407 501.552 383.697L487.648 224.303ZM537.816 202.773C543.789 198.162 541.401 199.452 537.608 203.847C535.334 206.483 529.557 213.589 525.363 224.789C520.49 237.806 519.067 252.856 522.511 267.926L678.489 232.274C687.259 270.645 667.545 298.176 658.742 308.378C650.699 317.698 641.011 325.238 635.584 329.427L537.816 202.773ZM522.465 267.721C523.998 274.513 526.134 279.712 527.561 282.819C529.07 286.107 530.534 288.665 531.564 290.352C533.564 293.626 535.297 295.843 536.011 296.734C537.482 298.57 538.235 299.236 537.58 298.589C536.463 297.487 533.996 295.279 530.934 292.948L627.866 165.652C635.704 171.621 643.437 178.263 649.97 184.711C653.14 187.839 657.081 191.955 660.871 196.684C662.744 199.022 665.419 202.547 668.115 206.961C670.114 210.235 675.601 219.483 678.535 232.479L522.465 267.721ZM531.009 293.005C518.757 283.698 506.31 278.308 495.858 276.155L528.142 119.445C564.29 126.892 598.443 143.302 627.791 165.595L531.009 293.005ZM496.639 276.311C497.246 276.43 497.37 276.435 496.868 276.364C496.423 276.302 495.715 276.211 494.749 276.107C492.787 275.894 490.382 275.691 487.898 275.54C485.378 275.387 483.29 275.319 481.918 275.309C481.24 275.303 481.038 275.315 481.242 275.307C481.257 275.307 482.668 275.264 484.923 274.982L465.077 116.218C476.877 114.743 490.583 115.408 497.602 115.835C505.983 116.344 517.567 117.372 527.361 119.289L496.639 276.311ZM531.231 133.005C536.293 134.19 545.403 136.474 551.798 138.605L501.202 290.395C502.079 290.687 502.422 290.774 501.873 290.617C501.473 290.502 500.836 290.326 499.985 290.1C498.256 289.641 496.318 289.158 494.769 288.795L531.231 133.005ZM552.118 138.713C560.804 141.649 571.206 146.471 577.839 149.678C584.56 152.928 594.865 158.125 602.76 163.234L515.84 297.566C516.648 298.089 516.975 298.261 516.561 298.024C516.231 297.836 515.634 297.504 514.751 297.035C512.968 296.087 510.674 294.925 508.186 293.722C505.698 292.518 503.382 291.452 501.58 290.662C500.685 290.271 500.09 290.023 499.784 289.9C499.368 289.733 499.819 289.928 500.882 290.287L552.118 138.713ZM602.424 163.018C610.089 167.924 619.368 175.138 625.18 179.825C628.447 182.459 632.049 185.45 635.207 188.259C636.614 189.51 639.019 191.684 641.522 194.255C642.594 195.355 645.218 198.083 648.08 201.786C649.434 203.537 652.242 207.289 655.077 212.454C656.449 214.953 665 229.918 665 251.1H505C505 263.035 507.681 272.291 509.421 277.297C511.298 282.7 513.401 286.863 514.818 289.443C517.584 294.482 520.288 298.083 521.507 299.659C524.1 303.012 526.326 305.297 526.885 305.871C528.363 307.389 529.287 308.181 528.871 307.81C528.382 307.375 526.966 306.166 524.745 304.375C519.582 300.212 516.011 297.676 516.176 297.782L602.424 163.018ZM665 251.1C665 267.942 659.687 280.352 657.307 285.396C654.469 291.41 651.46 295.843 649.703 298.278C646.185 303.155 642.843 306.633 641.373 308.129C638.1 311.458 635.03 314.048 633.456 315.351C629.863 318.326 625.968 321.226 622.682 323.59C615.977 328.415 607.414 334.149 599.486 338.863L517.714 201.337C520.886 199.451 525.523 196.385 529.243 193.71C531.169 192.323 531.793 191.799 531.416 192.112C531.25 192.25 530.837 192.595 530.252 193.116C529.73 193.582 528.642 194.57 527.269 195.967C526.239 197.015 523.237 200.106 519.948 204.665C518.306 206.941 515.384 211.232 512.605 217.122C510.284 222.041 505 234.346 505 251.1H665ZM599.423 338.9C564.469 359.641 524.317 372 483.4 372V212C492.283 212 504.531 209.159 517.777 201.3L599.423 338.9ZM483.4 372C433.535 372 389.806 353.517 351.982 323.316L451.818 198.284C466.594 210.082 476.065 212 483.4 212V372ZM351.043 322.554L347.643 319.754L449.357 196.246L452.757 199.046L351.043 322.554ZM398.5 178H444V338H398.5V178ZM444 178C453.879 178 461.468 177.987 467.368 177.949C473.378 177.909 477.063 177.845 479.335 177.769C480.438 177.733 480.818 177.705 480.715 177.712C480.699 177.713 479.467 177.793 477.532 178.075C475.74 178.336 471.681 179.001 466.54 180.637C460.984 182.404 453.625 185.47 445.923 190.861L537.677 321.939C521.617 333.18 505.77 335.651 500.58 336.406C494.44 337.3 488.51 337.552 484.665 337.681C476.277 337.96 463.287 338 444 338V178ZM447.424 189.836C421.026 207.434 414.876 233.668 414.118 247.59C413.297 262.675 417.214 283.456 433.599 301.153L551.001 192.447C569.886 212.844 574.903 237.525 573.882 256.285C572.924 273.882 565.274 303.566 536.176 322.964L447.424 189.836ZM432.313 299.73C434.235 301.908 437.1 304.906 440.929 308.082C444.824 311.311 449.02 314.149 453.446 316.55C461.998 321.19 469.471 323.145 473.446 324.002C477.38 324.851 480.25 325.111 480.912 325.169C481.779 325.246 482.009 325.238 481.155 325.206C479.38 325.139 476.019 325.076 469.702 325.041C463.574 325.006 455.484 325 444.6 325V165C465.404 165 478.943 165.009 487.17 165.319C490.283 165.436 498.455 165.717 507.188 167.601C512.315 168.707 520.592 170.948 529.753 175.919C540.08 181.522 547.397 188.328 552.287 193.87L432.313 299.73ZM444.427 325L398.327 324.9L398.674 164.9L444.774 165L444.427 325ZM346.437 184.159L349.937 181.159L454.063 302.641L450.563 305.641L346.437 184.159ZM350.009 181.097C362.864 170.106 387.786 154.382 402.787 147.285L471.214 291.915C471.686 291.691 470.879 292.064 468.595 293.383C466.559 294.559 464.124 296.039 461.607 297.644C459.081 299.254 456.815 300.772 455.082 301.99C452.991 303.461 452.893 303.641 453.991 302.703L350.009 181.097ZM402.661 147.345C419.291 139.441 440.034 132.886 457.736 130.025L483.264 287.975C483.306 287.968 482.762 288.059 481.648 288.333C480.578 288.597 479.279 288.957 477.853 289.406C474.776 290.375 472.424 291.34 471.339 291.855L402.661 147.345ZM458.465 129.91C471.259 127.964 485.996 128.243 495.005 128.64C504.349 129.051 518.704 130.095 531.104 132.975L494.896 288.825C496.238 289.136 496.916 289.227 496.652 289.187C496.483 289.161 495.955 289.087 495.045 288.99C493.19 288.794 490.708 288.606 487.97 288.485C485.225 288.364 482.816 288.338 481.105 288.369C480.706 288.377 480.394 288.386 480.168 288.395C479.938 288.404 479.838 288.411 479.858 288.41C479.87 288.409 480.085 288.395 480.473 288.355C480.843 288.318 481.556 288.239 482.535 288.089L458.465 129.91Z" fill="#9F573B" mask="url(#path-13-inside-5_34_3)"/>
<mask id="path-15-inside-6_34_3" fill="white">
<path d="M340.3 282C298.8 326.2 286.7 375.6 304.1 429.3C310.2 448.1 324.4 473.3 338.4 490.2C345.9 499.2 348.1 500.6 352.1 499C356.2 497.3 370.1 481.6 377.9 469.9C390.3 451.1 398.8 431.7 403.2 411.3C405.9 398.5 406.2 376.6 403.7 363.7C397.9 334.4 382.7 306.8 358.1 281C350.4 272.8 348.8 272.9 340.3 282ZM344.9 391.3C346.4 393.1 351.6 393.5 354 392C355.3 391.2 355.6 384.4 356 344.3L356.5 297.6L363.7 307C376.5 324 384.9 340.7 389.8 358.9C392 367.3 392.4 370.5 392.4 385.5C392.5 398.8 392.1 404.2 390.6 410.5C386.9 426.5 379.1 444.9 370.5 458.5C364.9 467.2 350.9 484.1 349.6 483.7C347.8 483.1 335.9 466.9 331.1 458.6C299.6 403.5 301.7 352 337.4 304.7L342.5 297.9L343 343.8C343.4 380.7 343.8 390 344.9 391.3Z"/>
</mask>
<path d="M340.3 282L398.763 336.608L398.693 336.684L398.622 336.759L340.3 282ZM304.1 429.3L228.005 453.99L228 453.975L227.995 453.96L304.1 429.3ZM338.4 490.2L276.942 541.415L276.868 541.325L276.793 541.235L338.4 490.2ZM352.1 499L382.741 572.899L382.277 573.092L381.811 573.278L352.1 499ZM377.9 469.9L444.682 513.948L444.573 514.112L444.464 514.276L377.9 469.9ZM403.2 411.3L481.477 427.812L481.44 427.989L481.402 428.167L403.2 411.3ZM403.7 363.7L482.177 348.165L482.208 348.322L482.239 348.479L403.7 363.7ZM358.1 281L300.201 336.206L299.99 335.985L299.781 335.763L358.1 281ZM344.9 391.3L405.971 339.625L406.165 339.854L406.358 340.085L344.9 391.3ZM354 392L311.6 324.16L311.836 324.013L312.072 323.867L354 392ZM356 344.3L276.004 343.502L276.004 343.473L276.005 343.443L356 344.3ZM356.5 297.6L276.505 296.743L278.987 64.8408L420.01 248.954L356.5 297.6ZM363.7 307L427.21 258.354L427.411 258.616L427.61 258.88L363.7 307ZM389.8 358.9L467.049 338.102L467.12 338.366L467.19 338.631L389.8 358.9ZM392.4 385.5L312.402 386.101L312.4 385.801V385.5H392.4ZM390.6 410.5L312.657 392.476L312.715 392.223L312.776 391.97L390.6 410.5ZM370.5 458.5L438.115 501.257L437.943 501.529L437.769 501.8L370.5 458.5ZM349.6 483.7L326.073 560.162L325.184 559.889L324.302 559.595L349.6 483.7ZM331.1 458.6L261.847 498.65L261.747 498.478L261.648 498.305L331.1 458.6ZM337.4 304.7L401.4 352.7L401.327 352.797L401.254 352.894L337.4 304.7ZM342.5 297.9L278.5 249.9L419.928 61.3297L422.495 297.029L342.5 297.9ZM343 343.8L422.995 342.929L422.995 342.933L343 343.8ZM398.622 336.759C375.309 361.589 372.561 381.051 380.205 404.64L227.995 453.96C200.839 370.149 222.291 290.811 281.978 227.241L398.622 336.759ZM380.195 404.61C382.841 412.765 391.731 429.175 400.007 439.165L276.793 541.235C257.069 517.425 237.559 483.435 228.005 453.99L380.195 404.61ZM399.858 438.985C401.395 440.83 401.454 440.817 400.718 440.054C400.299 439.619 396.402 435.501 389.759 431.239C382.006 426.266 369.635 420.528 353.553 419.677C338.396 418.875 327.058 422.854 322.389 424.722L381.811 573.278C375.142 575.946 362.029 580.35 345.1 579.454C327.246 578.509 313.107 572.159 303.366 565.911C289.125 556.774 278.949 543.823 276.942 541.415L399.858 438.985ZM321.459 425.101C318.483 426.334 316.053 427.562 314.257 428.54C312.431 429.534 310.915 430.459 309.752 431.206C307.487 432.661 305.809 433.923 304.841 434.678C302.959 436.148 301.873 437.184 301.782 437.269C301.53 437.507 302.215 436.862 303.739 435.142C305.133 433.569 306.7 431.694 308.191 429.793C309.724 427.836 310.786 426.349 311.336 425.524L444.464 514.276C438.077 523.857 430.257 533.618 423.486 541.258C420.048 545.138 416.001 549.468 411.746 553.493C409.654 555.473 406.748 558.105 403.29 560.804C401.043 562.559 393.5 568.438 382.741 572.899L321.459 425.101ZM311.118 425.852C318.747 414.286 322.936 403.996 324.998 394.433L481.402 428.167C474.664 459.404 461.853 487.914 444.682 513.948L311.118 425.852ZM324.923 394.788C324.775 395.488 324.922 394.965 325.098 393.031C325.259 391.261 325.377 389.039 325.405 386.617C325.433 384.191 325.365 382.005 325.247 380.299C325.117 378.417 324.99 378.036 325.161 378.921L482.239 348.479C486.839 372.215 486.308 404.91 481.477 427.812L324.923 394.788ZM325.223 379.235C322.896 367.479 316.334 353.126 300.201 336.206L415.999 225.794C449.066 260.474 472.904 301.321 482.177 348.165L325.223 379.235ZM299.781 335.763C297.708 333.555 300.68 337.06 305.953 340.927C312.1 345.435 329.192 356.292 354.029 354.884C377.095 353.576 391.728 342.357 395.258 339.562C399.041 336.565 401.024 334.188 398.763 336.608L281.837 227.392C283.826 225.262 289.196 219.46 295.911 214.141C302.372 209.024 319.48 196.586 344.971 195.141C372.233 193.595 391.7 205.396 400.578 211.907C408.582 217.777 414.642 224.345 416.419 226.237L299.781 335.763ZM406.358 340.085C394.085 325.358 379.992 319.388 373.918 317.182C366.588 314.521 360.125 313.498 355.248 313.123C350.233 312.737 344.52 312.854 338.272 313.925C332.619 314.893 322.564 317.308 311.6 324.16L396.4 459.84C374.663 473.425 352.962 473.42 342.977 472.652C336.312 472.139 328.118 470.773 319.316 467.577C311.77 464.837 296.465 458.142 283.442 442.515L406.358 340.085ZM312.072 323.867C290.878 336.91 282.607 355.408 279.946 362.207C276.992 369.755 276.027 375.831 275.782 377.381C275.224 380.915 275.273 382.73 275.409 379.514C275.63 374.271 275.8 363.994 276.004 343.502L435.996 345.098C435.8 364.706 435.62 377.879 435.266 386.261C435.115 389.858 434.819 396.028 433.827 402.316C433.365 405.243 432.161 412.294 428.94 420.524C426.012 428.004 417.447 446.89 395.928 460.133L312.072 323.867ZM276.005 343.443L276.505 296.743L436.495 298.456L435.995 345.156L276.005 343.443ZM420.01 248.954L427.21 258.354L300.19 355.646L292.99 346.246L420.01 248.954ZM427.61 258.88C445.768 282.996 459.167 308.827 467.049 338.102L312.551 379.698C310.633 372.573 307.232 365.004 299.79 355.12L427.61 258.88ZM467.19 338.631C471.797 356.223 472.4 366.965 472.4 385.5H312.4C312.4 381.983 312.375 379.861 312.335 378.459C312.297 377.121 312.262 377.087 312.327 377.738C312.414 378.598 312.562 379.559 312.721 380.345C312.823 380.847 312.833 380.783 312.41 379.169L467.19 338.631ZM472.398 384.898C472.508 399.51 472.262 412.913 468.424 429.03L312.776 391.97C312.722 392.196 312.588 392.804 312.464 393.607C312.343 394.389 312.307 394.87 312.309 394.851C312.316 394.752 312.358 394.115 312.386 392.616C312.415 391.106 312.424 389.04 312.402 386.101L472.398 384.898ZM468.543 428.524C462.762 453.523 451.395 480.256 438.115 501.257L302.885 415.743C306.805 409.544 311.038 399.477 312.657 392.476L468.543 428.524ZM437.769 501.8C432.438 510.081 425.216 519.309 420.027 525.569C417.287 528.874 413.944 532.767 410.593 536.29C409.16 537.796 406.211 540.848 402.479 544.022C400.906 545.361 396.692 548.892 390.783 552.395C387.917 554.094 382 557.394 373.905 559.957C367.309 562.045 348.714 567.129 326.073 560.162L373.127 407.238C350.567 400.296 332.078 405.371 325.612 407.419C317.646 409.941 311.882 413.167 309.192 414.762C303.633 418.057 299.859 421.258 298.804 422.156C297.238 423.488 296.14 424.543 295.665 425.006C295.12 425.539 294.772 425.902 294.661 426.019C294.475 426.215 295.226 425.413 296.848 423.456C298.308 421.696 299.887 419.706 301.264 417.886C302.799 415.858 303.379 414.971 303.231 415.2L437.769 501.8ZM324.302 559.595C309.289 554.59 299.527 546.179 298.397 545.251C295.128 542.568 292.677 540.138 291.39 538.827C288.689 536.075 286.48 533.483 285.163 531.901C282.306 528.472 279.455 524.733 277.047 521.461C272.517 515.308 266.379 506.487 261.847 498.65L400.353 418.55C400.256 418.382 400.769 419.253 402.077 421.191C403.258 422.941 404.62 424.871 405.903 426.614C406.533 427.469 407.076 428.188 407.506 428.744C407.961 429.332 408.149 429.558 408.087 429.483C408.048 429.436 407.85 429.199 407.514 428.819C407.211 428.478 406.542 427.732 405.58 426.752C404.801 425.958 402.794 423.945 399.9 421.57C398.43 420.363 395.953 418.419 392.661 416.303C389.828 414.482 383.616 410.711 374.898 407.805L324.302 559.595ZM261.648 498.305C240.177 460.747 227.323 419.314 229.117 375.456C230.929 331.154 247.421 291.119 273.546 256.506L401.254 352.894C391.679 365.581 389.271 374.946 388.983 381.994C388.677 389.486 390.523 401.353 400.552 418.895L261.648 498.305ZM273.4 256.7L278.5 249.9L406.5 345.9L401.4 352.7L273.4 256.7ZM422.495 297.029L422.995 342.929L263.005 344.671L262.505 298.771L422.495 297.029ZM422.995 342.933C423.197 361.582 423.39 371.945 423.622 377.663C423.675 378.982 423.719 379.739 423.742 380.084C423.771 380.508 423.746 379.976 423.61 378.858C423.519 378.107 423.113 374.769 421.954 370.302C421.353 367.987 420.236 364.133 418.27 359.53C416.43 355.222 412.746 347.632 405.971 339.625L283.829 442.975C271.542 428.455 267.842 413.415 267.084 410.496C265.691 405.128 265.071 400.561 264.781 398.179C264.175 393.196 263.913 388.097 263.753 384.137C263.41 375.655 263.203 362.918 263.005 344.667L422.995 342.933Z" fill="#9F573B" mask="url(#path-15-inside-6_34_3)"/>
<mask id="path-17-inside-7_34_3" fill="white">
<path d="M273.7 311.1C210.9 316.4 173.6 350.4 164.5 410.5C162.5 424 162.5 433.9 164.7 436.9C166.3 439.2 166.6 439.3 175.9 438.7C228.4 435.5 273.5 402.4 286 357.9C288.9 347.6 290.9 334.2 291.2 323.3C291.6 310.2 290.7 309.6 273.7 311.1ZM245.2 348.3C219.9 373.7 218.9 374.9 223 379C227.5 383.5 228.8 382.6 254.3 357.2L278.2 333.5L277.5 338C276.3 346.1 272.1 360.7 269.1 367.4C258.3 391.2 237.8 408.7 208.7 418.9C199.8 422 182.4 426 177.6 426C175 426 175 425.9 175.6 420.2C178.4 392.9 188.7 368.8 204.6 352.6C218.7 338.2 232.9 330.8 255.8 326C271.4 322.7 272 321.5 245.2 348.3Z"/>
</mask>
<path d="M273.7 311.1L280.732 390.79L280.58 390.804L280.428 390.817L273.7 311.1ZM164.5 410.5L85.3638 398.776L85.3825 398.65L85.4016 398.523L164.5 410.5ZM164.7 436.9L229.212 389.591L229.803 390.396L230.372 391.215L164.7 436.9ZM175.9 438.7L170.749 358.866L170.891 358.857L171.033 358.848L175.9 438.7ZM286 357.9L208.981 336.265L208.987 336.242L208.994 336.219L286 357.9ZM291.2 323.3L211.23 321.099L211.234 320.979L211.237 320.858L291.2 323.3ZM245.2 348.3L188.52 291.843L188.576 291.787L188.632 291.731L245.2 348.3ZM254.3 357.2L197.843 300.52L197.906 300.457L197.97 300.394L254.3 357.2ZM278.2 333.5L221.87 276.694L394.651 105.359L357.249 345.797L278.2 333.5ZM277.5 338L198.364 326.276L198.406 325.99L198.451 325.703L277.5 338ZM269.1 367.4L342.115 400.093L342.033 400.276L341.95 400.458L269.1 367.4ZM208.7 418.9L235.163 494.396L235.089 494.422L235.015 494.448L208.7 418.9ZM175.6 420.2L255.183 428.362L255.172 428.468L255.16 428.575L175.6 420.2ZM204.6 352.6L261.761 408.57L261.728 408.604L261.695 408.637L204.6 352.6ZM255.8 326L272.357 404.268L272.284 404.283L272.212 404.298L255.8 326ZM280.428 390.817C261.95 392.376 255.059 397.367 252.825 399.401C250.845 401.204 246.015 406.517 243.598 422.477L85.4016 398.523C92.0852 354.382 110.455 312.646 145.101 281.099C179.491 249.783 222.65 235.124 266.972 231.383L280.428 390.817ZM243.636 422.224C242.976 426.68 243.029 428.17 243.024 427.197C243.022 426.791 243.014 423.837 242.219 419.374C241.807 417.062 241.006 413.326 239.398 408.78C237.868 404.454 234.889 397.331 229.212 389.591L100.188 484.209C88.8123 468.697 85.7111 453.116 84.6999 447.441C83.3486 439.857 83.0535 433.021 83.0263 428.078C82.9709 418.029 84.0239 407.82 85.3638 398.776L243.636 422.224ZM230.372 391.215C230.365 391.203 230.292 391.099 230.185 390.948C230.077 390.795 229.901 390.547 229.675 390.236C229.243 389.644 228.469 388.599 227.434 387.32C225.36 384.759 221.659 380.526 216.237 376.124C203.481 365.769 190.084 361.549 180.453 359.957C176.346 359.279 173.11 359.104 171.41 359.047C169.654 358.987 168.437 359.02 168.156 359.028C167.843 359.037 168.165 359.033 170.749 358.866L181.051 518.534C178.985 518.667 175.782 518.875 172.747 518.962C170.468 519.028 163.087 519.257 154.372 517.817C143.304 515.989 128.951 511.349 115.397 500.347C109.577 495.622 105.517 491.008 103.085 488.004C100.876 485.277 99.219 482.86 99.0276 482.585L230.372 391.215ZM171.033 358.848C195.717 357.344 207.258 342.398 208.981 336.265L363.019 379.534C339.742 462.402 261.083 513.656 180.767 518.552L171.033 358.848ZM208.994 336.219C210.047 332.48 211.105 325.635 211.23 321.099L371.17 325.501C370.695 342.765 367.753 362.72 363.006 379.581L208.994 336.219ZM211.237 320.858C211.378 316.239 210.932 321.291 211.989 328.038C213.378 336.905 219.165 360.615 243.29 377.397C262.595 390.827 281.402 390.502 282.043 390.515C284.656 390.568 285.785 390.344 280.732 390.79L266.669 231.41C270.116 231.105 277.732 230.395 285.282 230.548C290.861 230.661 313.055 231.023 334.66 246.053C361.085 264.435 368.084 290.658 370.061 303.274C371.706 313.771 371.222 323.811 371.163 325.742L211.237 320.858ZM301.88 404.757C295.387 411.275 291.198 415.498 288.277 418.55C284.713 422.274 285.73 421.502 287.774 418.691C288.915 417.122 292.24 412.423 295.237 405.334C298.447 397.742 302.183 385.263 300.923 369.62C299.62 353.447 293.566 341.086 288.362 333.258C285.947 329.626 283.705 326.942 282.311 325.361C280.932 323.796 279.84 322.703 279.569 322.431L166.432 435.568C165.431 434.568 160.133 429.38 155.116 421.833C149.281 413.055 142.83 399.73 141.44 382.47C138.866 350.529 155.505 328.531 158.376 324.584C165.974 314.136 178.889 301.512 188.52 291.843L301.88 404.757ZM279.569 322.431C279.368 322.231 278.42 321.282 277.048 320.059C275.664 318.826 273.283 316.801 270.059 314.574C263.273 309.886 251.946 303.759 236.628 301.746C206.509 297.787 186.338 312.771 185.06 313.661C181.659 316.029 180.525 317.428 184.211 313.929C187.162 311.129 191.323 307.015 197.843 300.52L310.757 413.879C301.246 423.354 287.959 436.978 276.49 444.964C271.137 448.691 248.203 464.644 215.778 460.382C199.307 458.217 186.941 451.62 179.123 446.22C172.25 441.472 167.441 436.578 166.432 435.568L279.569 322.431ZM197.97 300.394L221.87 276.694L334.53 390.306L310.63 414.006L197.97 300.394ZM357.249 345.797L356.549 350.296L198.451 325.703L199.151 321.203L357.249 345.797ZM356.636 349.724C354.447 364.504 348.326 386.221 342.115 400.093L196.085 334.707C195.883 335.158 195.746 335.487 195.672 335.667C195.633 335.762 195.604 335.833 195.587 335.877C195.569 335.922 195.56 335.945 195.559 335.947C195.559 335.948 195.583 335.884 195.631 335.751C195.679 335.619 195.743 335.439 195.821 335.21C196.158 334.226 196.6 332.83 197.066 331.201C197.531 329.579 197.919 328.076 198.195 326.896C198.511 325.54 198.494 325.399 198.364 326.276L356.636 349.724ZM341.95 400.458C320.528 447.666 280.906 478.363 235.163 494.396L182.237 343.403C194.694 339.037 196.072 334.733 196.25 334.342L341.95 400.458ZM235.015 494.448C226.672 497.354 216.94 499.884 209.46 501.596C205.32 502.544 190.681 506 177.6 506V346C175.286 346 173.507 346.113 172.547 346.187C171.506 346.266 170.737 346.353 170.325 346.403C169.54 346.498 169.243 346.558 169.583 346.5C170.251 346.384 171.702 346.101 173.765 345.629C175.755 345.173 177.809 344.657 179.608 344.164C180.493 343.922 181.214 343.712 181.756 343.548C182.325 343.375 182.516 343.306 182.385 343.352L235.015 494.448ZM177.6 506C177.506 506 175.075 506.016 172.271 505.859C169.641 505.712 162.947 505.257 154.799 503.006C145.964 500.564 133.532 495.504 121.788 484.804C109.813 473.894 103.163 461.33 99.6348 450.921C94.0569 434.466 95.3725 419.896 95.41 419.201C95.5896 415.871 95.9785 412.406 96.0396 411.825L255.16 428.575C254.922 430.844 255.085 429.529 255.178 427.821C255.234 426.767 255.375 423.819 255.151 419.929C254.942 416.306 254.267 408.705 251.165 399.554C247.762 389.514 241.287 377.229 229.544 366.531C218.034 356.044 205.893 351.128 197.413 348.785C189.622 346.632 183.35 346.229 181.216 346.11C178.906 345.98 177.045 346 177.6 346V506ZM96.0175 412.038C100.254 370.728 116.32 328.336 147.505 296.562L261.695 408.637C261.08 409.264 256.546 415.072 255.183 428.362L96.0175 412.038ZM147.439 296.63C174.256 269.242 203.464 255.231 239.388 247.701L272.212 404.298C268.867 404.999 266.747 405.608 265.465 406.036C264.837 406.246 264.421 406.409 264.173 406.512C263.93 406.614 263.818 406.672 263.801 406.681C263.787 406.688 263.809 406.677 263.842 406.656C263.874 406.636 263.855 406.645 263.769 406.711C263.613 406.83 262.972 407.333 261.761 408.57L147.439 296.63ZM239.243 247.732C240.032 247.565 243.235 246.871 244.981 246.516C246.531 246.201 251.699 245.129 257.625 244.619C260.594 244.363 266.704 243.96 274.246 244.775C280.508 245.451 297.1 247.832 313.772 260.097C334.861 275.61 345.908 299.272 346.59 322.72C347.128 341.247 341.144 354.95 338.692 360.124C333.572 370.927 326.941 378.588 325.502 380.288C322.846 383.425 320.101 386.334 318.001 388.516C313.831 392.85 307.963 398.674 301.769 404.868L188.632 291.731C195.837 284.526 199.944 280.449 202.711 277.574C204.08 276.151 204.044 276.129 203.387 276.905C203.027 277.331 201.979 278.583 200.643 280.449C199.51 282.03 196.783 285.957 194.108 291.601C191.968 296.115 186.131 309.277 186.657 327.367C187.326 350.378 198.201 373.708 218.964 388.982C235.31 401.006 251.423 403.24 257.058 403.849C263.973 404.596 269.309 404.205 271.363 404.028C275.995 403.629 281.071 402.425 272.357 404.268L239.243 247.732Z" fill="#9F573B" mask="url(#path-17-inside-7_34_3)"/>
<mask id="path-19-inside-8_34_3" fill="white">
<path d="M416.3 311.1C412.2 312.6 411.7 314.4 412.4 325.8C414.7 359.8 425 384.2 445.3 403.7C458.7 416.4 473.8 425.3 492.5 431.4C507 436.2 530.7 440.1 536.3 438.6C540.7 437.5 541.5 433.4 540.2 419.1C537.4 387.7 526.6 362.8 507.5 343.5C493.3 329.1 478.7 320.8 458.5 315.5C445.6 312.2 420.5 309.5 416.3 311.1ZM453.7 327.6C473.1 332.4 487.9 340.8 500.7 354.3C510.2 364.4 516.1 374.6 521.2 389.4C524.8 400 528 415.8 528 422.9V426.2L522.3 425.5C513.1 424.4 495.2 419.5 486.2 415.7C472.9 410 463.4 403.5 453 393C439.5 379.4 432.6 366.8 428 347.9C424 331 423.2 330.7 449.8 357.3C475.5 383 476.7 383.8 480.9 378.4C482.1 376.9 483 375 483 374.2C483 373.3 472.1 361.7 458.8 348.3L434.5 324L439.5 324.6C442.3 325 448.6 326.3 453.7 327.6Z"/>
</mask>
<path d="M416.3 311.1L444.78 385.859L444.284 386.048L443.787 386.23L416.3 311.1ZM412.4 325.8L332.582 331.199L332.566 330.951L332.55 330.703L412.4 325.8ZM445.3 403.7L390.268 461.765L390.073 461.58L389.88 461.394L445.3 403.7ZM492.5 431.4L517.31 355.344L517.475 355.398L517.641 355.453L492.5 431.4ZM536.3 438.6L515.601 361.324L516.248 361.151L516.897 360.989L536.3 438.6ZM540.2 419.1L460.529 426.343L460.522 426.274L460.516 426.206L540.2 419.1ZM507.5 343.5L450.638 399.773L450.587 399.722L450.537 399.672L507.5 343.5ZM458.5 315.5L478.327 237.996L478.565 238.057L478.803 238.119L458.5 315.5ZM453.7 327.6L434.486 405.258L434.212 405.191L433.94 405.121L453.7 327.6ZM500.7 354.3L558.754 299.257L558.864 299.373L558.973 299.489L500.7 354.3ZM521.2 389.4L596.835 363.337L596.893 363.505L596.951 363.673L521.2 389.4ZM528 426.2H608V516.626L518.249 505.604L528 426.2ZM522.3 425.5L531.798 346.066L531.924 346.081L532.051 346.097L522.3 425.5ZM486.2 415.7L455.082 489.4L454.884 489.316L454.686 489.232L486.2 415.7ZM453 393L509.777 336.641L509.808 336.672L509.839 336.703L453 393ZM428 347.9L350.269 366.819L350.209 366.572L350.151 366.326L428 347.9ZM480.9 378.4L417.752 329.285L418.088 328.852L418.431 328.424L480.9 378.4ZM458.8 348.3L515.369 291.731L515.474 291.837L515.58 291.944L458.8 348.3ZM434.5 324L377.931 380.569L214.374 217.011L444.032 244.57L434.5 324ZM439.5 324.6L449.032 245.17L449.924 245.277L450.814 245.404L439.5 324.6ZM443.787 386.23C445.942 385.441 456.795 381.532 467.729 371.574C480.51 359.934 486.951 346.218 489.849 335.351C492.185 326.589 492.132 319.953 492.136 319.462C492.143 318.35 492.09 318.299 492.25 320.897L332.55 330.703C332.36 327.601 332.107 323.05 332.139 318.348C332.168 314.266 332.365 304.949 335.251 294.125C338.699 281.194 345.99 266.035 359.996 253.279C372.156 242.205 384.608 237.509 388.813 235.97L443.787 386.23ZM492.218 320.401C493.473 338.957 497.676 343.082 500.72 346.006L389.88 461.394C352.324 425.318 335.927 380.643 332.582 331.199L492.218 320.401ZM500.332 345.635C504.663 349.741 509.284 352.726 517.31 355.344L467.69 507.456C438.316 497.874 412.737 483.059 390.268 461.765L500.332 345.635ZM517.641 355.453C518.4 355.704 520.186 356.23 522.895 356.864C525.5 357.473 528.249 358.017 530.719 358.423C531.931 358.622 532.946 358.767 533.728 358.865C534.542 358.966 534.886 358.99 534.797 358.984C534.737 358.979 534.457 358.96 533.987 358.945C533.537 358.931 532.711 358.913 531.588 358.939C530.518 358.963 528.717 359.036 526.404 359.287C525.218 359.416 523.729 359.61 522.006 359.91C520.302 360.206 518.121 360.649 515.601 361.324L556.999 515.876C541.067 520.143 526.035 518.764 523.469 518.582C517.053 518.127 510.552 517.255 504.756 516.302C493.502 514.452 479.664 511.42 467.359 507.347L517.641 355.453ZM516.897 360.989C506.66 363.548 491.663 369.789 478.987 384.142C467.159 397.534 463.289 411.344 461.928 418.175C460.621 424.74 460.768 429.297 460.768 429.32C460.776 429.806 460.781 429.125 460.529 426.343L619.871 411.857C620.381 417.459 622.04 433.394 618.847 449.425C616.899 459.206 612.085 475.142 598.91 490.058C584.887 505.936 568.14 513.102 555.703 516.211L516.897 360.989ZM460.516 426.206C459.098 410.3 454.637 403.814 450.638 399.773L564.362 287.227C598.563 321.786 615.702 365.1 619.884 411.994L460.516 426.206ZM450.537 399.672C447.839 396.935 446.348 395.997 445.594 395.567C444.775 395.1 442.811 394.091 438.197 392.881L478.803 238.119C512.273 246.901 539.72 262.238 564.463 287.328L450.537 399.672ZM438.673 393.004C438.731 393.019 438.342 392.92 437.439 392.739C436.573 392.565 435.464 392.363 434.144 392.147C431.46 391.708 428.489 391.311 425.744 391.021C424.396 390.879 423.235 390.777 422.306 390.709C421.847 390.676 421.484 390.654 421.215 390.64C420.942 390.626 420.816 390.623 420.825 390.623C420.834 390.623 420.894 390.625 421.001 390.625C421.108 390.626 421.28 390.627 421.514 390.624C421.931 390.62 422.802 390.603 424.013 390.524C425.121 390.451 427.265 390.28 430.052 389.831C431.487 389.599 433.424 389.242 435.707 388.685C437.926 388.144 441.082 387.268 444.78 385.859L387.82 236.341C400.322 231.578 411.474 231.002 413.567 230.865C417.973 230.577 421.968 230.6 424.878 230.674C430.852 230.826 437.046 231.325 442.531 231.904C452.952 233.003 466.671 235.014 478.327 237.996L438.673 393.004ZM472.914 249.942C505.975 258.122 534.627 273.811 558.754 299.257L442.646 409.343C441.305 407.929 440.572 407.481 440.166 407.251C439.674 406.971 438.124 406.158 434.486 405.258L472.914 249.942ZM558.973 299.489C577.357 319.034 588.624 339.508 596.835 363.337L445.565 415.464C444.277 411.726 443.547 410.481 443.481 410.369C443.435 410.29 443.409 410.25 443.346 410.166C443.272 410.068 443.013 409.734 442.427 409.111L558.973 299.489ZM596.951 363.673C600.099 372.944 602.608 382.955 604.353 391.559C605.824 398.807 608 410.996 608 422.9H448C448 424.842 448.101 426.134 448.133 426.513C448.172 426.979 448.195 427.104 448.16 426.838C448.083 426.271 447.893 425.072 447.547 423.366C447.21 421.706 446.806 419.963 446.384 418.35C445.948 416.682 445.607 415.59 445.449 415.127L596.951 363.673ZM608 422.9V426.2H448V422.9H608ZM518.249 505.604L512.549 504.904L532.051 346.097L537.751 346.797L518.249 505.604ZM512.802 504.934C495.481 502.863 470.322 495.835 455.082 489.4L517.318 342C516.826 341.793 517.383 342.044 519.238 342.651C520.911 343.199 522.977 343.82 525.188 344.422C527.408 345.026 529.412 345.513 530.962 345.848C532.764 346.238 532.929 346.201 531.798 346.066L512.802 504.934ZM454.686 489.232C431.689 479.376 413.64 466.944 396.161 449.297L509.839 336.703C512.182 339.068 513.293 339.856 513.671 340.114C514.021 340.354 515.005 341.008 517.714 342.168L454.686 489.232ZM396.223 449.359C372.059 425.016 358.177 399.31 350.269 366.819L505.731 328.981C506.789 333.329 507.425 334.183 507.175 333.73C507.104 333.602 507.11 333.649 507.363 333.977C507.65 334.349 508.353 335.206 509.777 336.641L396.223 449.359ZM350.151 366.326C350.087 366.055 347.397 355.671 346.471 347.367C346.152 344.503 345.643 338.898 346.099 331.98C346.471 326.328 347.905 311.292 357.549 295.237C369.794 274.853 391.275 259.717 417.273 256.661C437.785 254.249 453.375 260.344 459.234 262.883C471.271 268.099 479.711 275.338 481.357 276.709C484.67 279.469 487.705 282.313 489.924 284.437C494.353 288.677 500.218 294.581 506.369 300.731L393.231 413.869C386.082 406.72 382.072 402.686 379.295 400.028C377.911 398.704 378.009 398.86 378.959 399.651C379.471 400.078 380.895 401.247 382.997 402.705C384.764 403.93 389.212 406.917 395.616 409.692C400.819 411.946 415.872 417.927 435.956 415.566C461.524 412.56 482.683 397.64 494.704 377.63C504.122 361.951 505.427 347.45 505.753 342.488C506.163 336.259 505.694 331.5 505.485 329.63C505.003 325.304 503.913 321.295 505.849 329.474L350.151 366.326ZM506.369 300.731C512.955 307.318 517.107 311.438 520.028 314.215C523.808 317.808 522.297 316.002 518.308 313.297C516.967 312.389 492.485 294.677 458.042 303.495C441.675 307.685 430.815 316.117 425.342 321.136C422.61 323.642 420.659 325.814 419.603 327.037C418.546 328.261 417.837 329.176 417.752 329.285L544.048 427.515C543.311 428.462 539.322 433.703 533.482 439.059C527.039 444.968 515.196 454.023 497.724 458.496C461.071 467.879 433.895 449.374 428.517 445.728C420.491 440.285 413.598 433.798 409.794 430.182C405.131 425.75 399.495 420.132 393.231 413.869L506.369 300.731ZM418.431 328.424C415.172 332.497 412.634 336.62 410.612 340.732C409.578 342.834 408.16 345.986 406.833 350.025C406.16 352.077 405.312 354.956 404.59 358.479C403.918 361.753 403 367.271 403 374.2H563C563 386.946 559.926 396.656 558.848 399.94C557.315 404.608 555.597 408.479 554.188 411.343C551.416 416.98 547.828 422.803 543.37 428.376L418.431 328.424ZM403 374.2C403 383.682 404.697 391.146 405.851 395.345C407.093 399.866 408.509 403.447 409.511 405.771C411.465 410.302 413.423 413.656 414.38 415.243C416.372 418.543 418.13 420.881 418.642 421.559C419.38 422.538 419.939 423.222 420.157 423.487C420.292 423.65 420.392 423.77 420.452 423.84C420.513 423.912 420.547 423.952 420.551 423.956C420.554 423.959 420.482 423.876 420.32 423.695C420.162 423.517 419.947 423.278 419.669 422.973C419.109 422.356 418.381 421.568 417.481 420.606C413.791 416.664 408.319 411.003 402.02 404.656L515.58 291.944C522.581 298.997 529.209 305.836 534.294 311.269C536.743 313.885 539.364 316.74 541.627 319.36C542.628 320.518 544.455 322.659 546.37 325.197C547.205 326.305 549.211 328.998 551.369 332.573C552.409 334.298 554.429 337.77 556.426 342.398C557.547 344.998 563 357.35 563 374.2H403ZM402.231 404.869L377.931 380.569L491.069 267.432L515.369 291.731L402.231 404.869ZM444.032 244.57L449.032 245.17L429.968 404.03L424.968 403.43L444.032 244.57ZM450.814 245.404C457.503 246.36 466.834 248.39 473.46 250.079L433.94 405.121C432.698 404.805 430.983 404.409 429.314 404.059C428.514 403.891 427.899 403.77 427.516 403.699C426.993 403.601 427.307 403.67 428.186 403.796L450.814 245.404Z" fill="#9F573B" mask="url(#path-19-inside-8_34_3)"/>
<path d="M147.5 312.9C137.2 319.1 134 332.5 140.7 340.8C147 348.5 156.4 350.9 164.8 346.9C175.2 341.8 178.3 327 170.8 317.4C166.1 311.5 153.7 309.1 147.5 312.9ZM161.3 326.2C163.5 328.9 163.5 331.5 161 334C156.5 338.5 149.6 335.2 150.2 328.9C150.7 323.1 157.2 321.6 161.3 326.2Z" stroke="#9F573B" stroke-width="5"/>
<path d="M525.4 312.9C520.6 315.8 517.1 321.1 515.8 327.2C514.7 332.3 514.8 333.1 517.1 337.6C523.6 350.8 541.6 352.9 549.5 341.2C554.7 333.6 554.8 326.5 549.7 318.9C545 311.8 532.3 308.7 525.4 312.9ZM539.3 326.2C541.5 328.9 541.5 331.5 539 334C535 338 528 335.5 528 330C528 323.5 534.9 321.2 539.3 326.2Z" stroke="#9F573B" stroke-width="5"/>
<path d="M261.5 415.5C254 419.6 250.5 426.4 251.2 435.3C251.8 442.3 254.6 446.2 261.5 449.6C266 451.7 268 452.2 272.1 451.8C281.3 450.9 288.5 442.3 288.5 432.4C288.4 426.4 286.1 422 280.7 417.7C277.6 415.1 275.9 414.5 270.7 414.2C266.3 414 263.6 414.4 261.5 415.5ZM273.4 428.1C276.4 430.5 276.8 434.4 274.3 437.2C270.8 441.1 263 438 263 432.6C263 430.1 267.1 426 269.5 426C270.2 426 271.9 426.9 273.4 428.1Z" stroke="#9F573B" stroke-width="5"/>
<path d="M420.5 415.9C414.2 419.7 410 427 410 434C410.1 441.7 418.2 450.3 426.7 451.6C435.2 452.9 442.3 449.2 446 441.5C449.7 433.9 448.1 424 442.3 418.8C437 414 426 412.5 420.5 415.9ZM434.3 429.2C436.5 431.9 436.5 434.5 434 437C429.5 441.5 422.6 438.2 423.2 431.9C423.7 426.1 430.2 424.6 434.3 429.2Z" stroke="#9F573B" stroke-width="5"/>
<path d="M19.7028 581.16H57.3028V588.6H27.4628V606.2H54.1028V613.64H27.4628V631.56H58.4228V639H19.7028V581.16ZM79.3303 639.64C76.9836 639.64 74.6903 639.24 72.4503 638.44C70.2636 637.587 68.4503 636.333 67.0103 634.68L70.1303 630.36C71.517 631.693 72.9303 632.707 74.3703 633.4C75.8636 634.04 77.3303 634.36 78.7703 634.36C79.837 634.36 80.8236 634.227 81.7303 633.96C82.637 633.693 83.357 633.267 83.8903 632.68C84.477 632.04 84.7703 631.187 84.7703 630.12C84.7703 628.947 84.3703 628.013 83.5703 627.32C82.8236 626.627 81.837 626.067 80.6103 625.64C79.437 625.213 78.1836 624.813 76.8503 624.44C74.1303 623.533 72.0503 622.28 70.6103 620.68C69.1703 619.08 68.4503 617.133 68.4503 614.84C68.4503 613.08 68.877 611.453 69.7303 609.96C70.637 608.413 71.9436 607.16 73.6503 606.2C75.4103 605.24 77.5703 604.76 80.1303 604.76C82.4236 604.76 84.477 605.053 86.2903 605.64C88.1036 606.173 89.8103 607.08 91.4103 608.36L88.4503 613C87.4903 611.987 86.3436 611.24 85.0103 610.76C83.677 610.28 82.477 610.013 81.4103 609.96C80.5036 609.907 79.6236 610.04 78.7703 610.36C77.9703 610.68 77.3036 611.133 76.7703 611.72C76.237 612.307 75.9703 613 75.9703 613.8C75.9703 614.92 76.3436 615.827 77.0903 616.52C77.837 617.213 78.797 617.773 79.9703 618.2C81.197 618.573 82.397 618.973 83.5703 619.4C85.2236 619.88 86.6903 620.52 87.9703 621.32C89.2503 622.12 90.2636 623.107 91.0103 624.28C91.8103 625.453 92.2103 626.92 92.2103 628.68C92.2103 630.653 91.7303 632.493 90.7703 634.2C89.8636 635.853 88.4503 637.187 86.5303 638.2C84.6636 639.16 82.2636 639.64 79.3303 639.64ZM122.148 639.8C119.642 639.8 117.215 639.213 114.868 638.04C112.575 636.867 110.788 635.293 109.508 633.32L109.988 631V654.92H102.628V605.4H109.028L110.068 613.88L109.268 611.56C110.868 609.533 112.895 607.853 115.348 606.52C117.802 605.187 120.548 604.52 123.588 604.52C126.682 604.52 129.455 605.267 131.908 606.76C134.415 608.253 136.388 610.333 137.828 613C139.268 615.667 139.988 618.787 139.988 622.36C139.988 625.933 139.215 629.027 137.668 631.64C136.122 634.253 133.988 636.28 131.268 637.72C128.602 639.107 125.562 639.8 122.148 639.8ZM120.708 633.88C122.842 633.88 124.788 633.4 126.548 632.44C128.362 631.427 129.802 630.067 130.868 628.36C131.935 626.6 132.468 624.627 132.468 622.44C132.468 620.2 131.962 618.227 130.948 616.52C129.935 614.76 128.575 613.373 126.868 612.36C125.215 611.347 123.348 610.84 121.268 610.84C119.348 610.84 117.615 611.213 116.068 611.96C114.522 612.707 113.242 613.747 112.228 615.08C111.215 616.36 110.495 617.853 110.068 619.56V625.08C110.335 626.787 110.975 628.307 111.988 629.64C113.002 630.973 114.255 632.013 115.748 632.76C117.295 633.507 118.948 633.88 120.708 633.88ZM163.81 639.8C160.717 639.8 157.89 639.133 155.33 637.8C152.824 636.467 150.824 634.52 149.33 631.96C147.89 629.347 147.17 626.173 147.17 622.44C147.17 618.76 147.944 615.587 149.49 612.92C151.037 610.2 153.09 608.12 155.65 606.68C158.264 605.24 161.117 604.52 164.21 604.52C167.304 604.52 169.917 605.24 172.05 606.68C174.184 608.067 175.81 609.72 176.93 611.64L176.45 612.92L177.17 605.88H184.05V639H176.61V630.36L177.41 632.28C177.197 632.813 176.717 633.507 175.97 634.36C175.277 635.16 174.317 635.987 173.09 636.84C171.917 637.693 170.557 638.413 169.01 639C167.464 639.533 165.73 639.8 163.81 639.8ZM165.81 633.64C167.677 633.64 169.357 633.293 170.85 632.6C172.344 631.907 173.57 630.947 174.53 629.72C175.544 628.44 176.237 626.92 176.61 625.16V618.68C176.184 617.08 175.437 615.693 174.37 614.52C173.304 613.293 172.024 612.36 170.53 611.72C169.037 611.027 167.384 610.68 165.57 610.68C163.597 610.68 161.784 611.16 160.13 612.12C158.477 613.08 157.144 614.413 156.13 616.12C155.17 617.827 154.69 619.827 154.69 622.12C154.69 624.253 155.197 626.2 156.21 627.96C157.224 629.72 158.584 631.107 160.29 632.12C161.997 633.133 163.837 633.64 165.81 633.64ZM223.805 635.96C222.312 637.133 220.525 638.067 218.445 638.76C216.365 639.453 214.285 639.8 212.205 639.8C208.579 639.8 205.405 639.08 202.685 637.64C199.965 636.2 197.832 634.2 196.285 631.64C194.792 629.027 194.045 625.96 194.045 622.44C194.045 618.92 194.845 615.853 196.445 613.24C198.099 610.627 200.232 608.627 202.845 607.24C205.512 605.8 208.365 605.08 211.405 605.08C214.072 605.08 216.445 605.453 218.525 606.2C220.659 606.947 222.472 607.96 223.965 609.24L220.285 614.04C219.325 613.293 218.152 612.627 216.765 612.04C215.379 611.453 213.805 611.16 212.045 611.16C210.125 611.16 208.339 611.667 206.685 612.68C205.085 613.64 203.805 614.973 202.845 616.68C201.939 618.387 201.485 620.307 201.485 622.44C201.485 624.467 201.965 626.36 202.925 628.12C203.885 629.827 205.219 631.187 206.925 632.2C208.632 633.16 210.579 633.64 212.765 633.64C214.205 633.64 215.512 633.427 216.685 633C217.912 632.573 219.005 631.987 219.965 631.24L223.805 635.96ZM202.285 651.16C202.872 651.747 203.619 652.227 204.525 652.6C205.432 653.027 206.472 653.24 207.645 653.24C209.032 653.24 210.285 652.92 211.405 652.28C212.525 651.693 213.085 650.813 213.085 649.64C213.085 648.733 212.712 647.88 211.965 647.08C211.219 646.333 209.859 645.96 207.885 645.96C207.032 645.96 206.125 646.067 205.165 646.28C204.205 646.493 203.379 646.733 202.685 647L201.325 643.4L206.925 638.2L212.605 638.52L206.845 645.24L205.085 643.4C205.672 643.133 206.392 642.92 207.245 642.76C208.099 642.653 208.925 642.573 209.725 642.52C212.552 642.467 214.872 643.027 216.685 644.2C218.499 645.373 219.405 647.133 219.405 649.48C219.405 651.293 218.872 652.76 217.805 653.88C216.792 655.053 215.459 655.907 213.805 656.44C212.152 657.027 210.339 657.32 208.365 657.32C206.392 657.32 204.685 657 203.245 656.36C201.859 655.773 200.739 655.08 199.885 654.28L202.285 651.16ZM230.53 622.12C230.53 618.813 231.303 615.827 232.85 613.16C234.45 610.493 236.636 608.387 239.41 606.84C242.183 605.293 245.33 604.52 248.85 604.52C252.476 604.52 255.65 605.293 258.37 606.84C261.09 608.387 263.196 610.493 264.69 613.16C266.183 615.827 266.93 618.813 266.93 622.12C266.93 625.427 266.183 628.44 264.69 631.16C263.196 633.827 261.063 635.933 258.29 637.48C255.57 639.027 252.396 639.8 248.77 639.8C245.25 639.8 242.103 639.08 239.33 637.64C236.61 636.147 234.45 634.093 232.85 631.48C231.303 628.813 230.53 625.693 230.53 622.12ZM237.97 622.2C237.97 624.333 238.45 626.28 239.41 628.04C240.37 629.747 241.65 631.107 243.25 632.12C244.903 633.133 246.716 633.64 248.69 633.64C250.77 633.64 252.61 633.133 254.21 632.12C255.863 631.107 257.143 629.747 258.05 628.04C258.956 626.28 259.41 624.333 259.41 622.2C259.41 620.067 258.956 618.147 258.05 616.44C257.143 614.68 255.863 613.293 254.21 612.28C252.61 611.213 250.77 610.68 248.69 610.68C246.663 610.68 244.823 611.213 243.17 612.28C241.57 613.347 240.29 614.76 239.33 616.52C238.423 618.227 237.97 620.12 237.97 622.2ZM304.156 639V579.32H304.236L334.556 622.36L331.276 621.72L361.516 579.32H361.676V639H353.996V596.92L354.476 600.84L332.636 631.72H332.476L310.316 600.84L311.676 597.24V639H304.156ZM390.217 639.8C387.123 639.8 384.297 639.133 381.737 637.8C379.23 636.467 377.23 634.52 375.737 631.96C374.297 629.347 373.577 626.173 373.577 622.44C373.577 618.76 374.35 615.587 375.897 612.92C377.443 610.2 379.497 608.12 382.057 606.68C384.67 605.24 387.523 604.52 390.617 604.52C393.71 604.52 396.323 605.24 398.457 606.68C400.59 608.067 402.217 609.72 403.337 611.64L402.857 612.92L403.577 605.88H410.457V639H403.017V630.36L403.817 632.28C403.603 632.813 403.123 633.507 402.377 634.36C401.683 635.16 400.723 635.987 399.497 636.84C398.323 637.693 396.963 638.413 395.417 639C393.87 639.533 392.137 639.8 390.217 639.8ZM392.217 633.64C394.083 633.64 395.763 633.293 397.257 632.6C398.75 631.907 399.977 630.947 400.937 629.72C401.95 628.44 402.643 626.92 403.017 625.16V618.68C402.59 617.08 401.843 615.693 400.777 614.52C399.71 613.293 398.43 612.36 396.937 611.72C395.443 611.027 393.79 610.68 391.977 610.68C390.003 610.68 388.19 611.16 386.537 612.12C384.883 613.08 383.55 614.413 382.537 616.12C381.577 617.827 381.097 619.827 381.097 622.12C381.097 624.253 381.603 626.2 382.617 627.96C383.63 629.72 384.99 631.107 386.697 632.12C388.403 633.133 390.243 633.64 392.217 633.64ZM423.332 605.88H430.772V639H423.332V605.88ZM422.772 593.88C422.772 592.707 423.225 591.72 424.132 590.92C425.092 590.12 426.132 589.72 427.252 589.72C428.372 589.72 429.358 590.12 430.212 590.92C431.118 591.72 431.572 592.707 431.572 593.88C431.572 595.107 431.118 596.12 430.212 596.92C429.358 597.667 428.372 598.04 427.252 598.04C426.132 598.04 425.092 597.64 424.132 596.84C423.225 596.04 422.772 595.053 422.772 593.88ZM452.924 639.64C450.577 639.64 448.284 639.24 446.044 638.44C443.857 637.587 442.044 636.333 440.604 634.68L443.724 630.36C445.111 631.693 446.524 632.707 447.964 633.4C449.457 634.04 450.924 634.36 452.364 634.36C453.431 634.36 454.417 634.227 455.324 633.96C456.231 633.693 456.951 633.267 457.484 632.68C458.071 632.04 458.364 631.187 458.364 630.12C458.364 628.947 457.964 628.013 457.164 627.32C456.417 626.627 455.431 626.067 454.204 625.64C453.031 625.213 451.777 624.813 450.444 624.44C447.724 623.533 445.644 622.28 444.204 620.68C442.764 619.08 442.044 617.133 442.044 614.84C442.044 613.08 442.471 611.453 443.324 609.96C444.231 608.413 445.537 607.16 447.244 606.2C449.004 605.24 451.164 604.76 453.724 604.76C456.017 604.76 458.071 605.053 459.884 605.64C461.697 606.173 463.404 607.08 465.004 608.36L462.044 613C461.084 611.987 459.937 611.24 458.604 610.76C457.271 610.28 456.071 610.013 455.004 609.96C454.097 609.907 453.217 610.04 452.364 610.36C451.564 610.68 450.897 611.133 450.364 611.72C449.831 612.307 449.564 613 449.564 613.8C449.564 614.92 449.937 615.827 450.684 616.52C451.431 617.213 452.391 617.773 453.564 618.2C454.791 618.573 455.991 618.973 457.164 619.4C458.817 619.88 460.284 620.52 461.564 621.32C462.844 622.12 463.857 623.107 464.604 624.28C465.404 625.453 465.804 626.92 465.804 628.68C465.804 630.653 465.324 632.493 464.364 634.2C463.457 635.853 462.044 637.187 460.124 638.2C458.257 639.16 455.857 639.64 452.924 639.64ZM507.535 581.16L526.575 629L522.175 628.12L540.255 581.16H549.295L523.775 641.64L498.335 581.16H507.535ZM557.941 605.88H565.381V639H557.941V605.88ZM557.381 593.88C557.381 592.707 557.834 591.72 558.741 590.92C559.701 590.12 560.741 589.72 561.861 589.72C562.981 589.72 563.968 590.12 564.821 590.92C565.728 591.72 566.181 592.707 566.181 593.88C566.181 595.107 565.728 596.12 564.821 596.92C563.968 597.667 562.981 598.04 561.861 598.04C560.741 598.04 559.701 597.64 558.741 596.84C557.834 596.04 557.381 595.053 557.381 593.88ZM581.453 591.32H588.893V606.04H598.013V611.88H588.893V639H581.453V611.88H575.373V606.04H581.453V591.32ZM607.003 639V577.08H614.283V613.56L614.123 612.2C615.243 610.013 616.95 608.2 619.243 606.76C621.59 605.32 624.337 604.6 627.483 604.6C630.63 604.6 633.19 605.533 635.163 607.4C637.19 609.213 638.23 611.587 638.283 614.52V639H630.763V617.16C630.71 615.347 630.177 613.88 629.163 612.76C628.203 611.587 626.683 611 624.603 611C622.683 611 620.95 611.56 619.403 612.68C617.857 613.747 616.63 615.213 615.723 617.08C614.87 618.947 614.443 621.08 614.443 623.48V639H607.003ZM664.982 639.8C661.889 639.8 659.062 639.133 656.502 637.8C653.996 636.467 651.996 634.52 650.502 631.96C649.062 629.347 648.342 626.173 648.342 622.44C648.342 618.76 649.116 615.587 650.662 612.92C652.209 610.2 654.262 608.12 656.822 606.68C659.436 605.24 662.289 604.52 665.382 604.52C668.476 604.52 671.089 605.24 673.222 606.68C675.356 608.067 676.982 609.72 678.102 611.64L677.622 612.92L678.342 605.88H685.222V639H677.782V630.36L678.582 632.28C678.369 632.813 677.889 633.507 677.142 634.36C676.449 635.16 675.489 635.987 674.262 636.84C673.089 637.693 671.729 638.413 670.182 639C668.636 639.533 666.902 639.8 664.982 639.8ZM666.982 633.64C668.849 633.64 670.529 633.293 672.022 632.6C673.516 631.907 674.742 630.947 675.702 629.72C676.716 628.44 677.409 626.92 677.782 625.16V618.68C677.356 617.08 676.609 615.693 675.542 614.52C674.476 613.293 673.196 612.36 671.702 611.72C670.209 611.027 668.556 610.68 666.742 610.68C664.769 610.68 662.956 611.16 661.302 612.12C659.649 613.08 658.316 614.413 657.302 616.12C656.342 617.827 655.862 619.827 655.862 622.12C655.862 624.253 656.369 626.2 657.382 627.96C658.396 629.72 659.756 631.107 661.462 632.12C663.169 633.133 665.009 633.64 666.982 633.64Z" fill="#9F573B"/>
</svg>
